<?xml version="1.0" standalone="no"?>
<!DOCTYPE svg PUBLIC "-//W3C//DTD SVG 20010904//EN"
 "http://www.w3.org/TR/2001/REC-SVG-20010904/DTD/svg10.dtd">
<svg version="1.0" xmlns="http://www.w3.org/2000/svg"
 width="626.000000pt" height="462.000000pt" viewBox="0 0 626.000000 462.000000"
 preserveAspectRatio="xMidYMid meet">

<g transform="translate(0.000000,462.000000) scale(0.100000,-0.100000)"
fill="#000000" stroke="none">
<path d="M880 4588 c0 -26 3 -30 11 -18 8 12 9 8 8 -15 -4 -55 0 -62 34 -70
42 -9 152 -10 252 -1 58 5 96 2 138 -9 97 -25 134 -21 178 23 33 31 39 43 39
80 l0 42 -330 0 -330 0 0 -32z"/>
<path d="M0 2932 c1 -1076 4 -1641 11 -1659 7 -18 6 -28 -1 -33 -7 -4 -10 -35
-8 -81 l3 -74 37 -6 c21 -3 36 -2 35 4 -3 15 31 17 57 3 18 -9 49 -9 142 2 66
7 136 14 157 15 40 2 46 10 51 73 1 16 5 34 9 41 4 6 1 14 -5 17 -7 3 -3 3 9
0 15 -3 25 1 32 14 6 11 7 22 4 26 -3 3 3 6 15 6 11 0 23 4 26 9 4 5 -8 7 -26
5 -30 -4 -32 -3 -15 10 11 8 25 12 32 10 15 -6 28 11 31 42 1 12 22 47 46 77
51 63 82 117 79 134 -1 7 10 20 24 29 14 9 25 24 25 34 0 19 30 50 48 50 8 0
12 -17 12 -45 0 -34 4 -45 15 -45 9 0 18 -7 21 -15 14 -35 66 -1 57 37 -3 13
-11 29 -17 37 -6 8 -11 35 -11 60 0 40 -3 46 -22 49 -24 4 -40 31 -20 36 6 2
29 9 49 15 48 16 63 7 42 -24 -14 -22 -14 -24 7 -30 18 -6 28 -1 48 24 39 47
85 51 135 12 21 -17 43 -31 48 -31 14 0 80 31 98 46 24 20 159 94 167 92 5 -1
23 6 41 15 17 10 32 14 32 10 0 -11 -84 -63 -108 -68 -32 -6 -154 -90 -194
-133 -24 -26 -35 -46 -33 -63 1 -13 3 -30 4 -36 0 -7 8 -13 16 -13 8 0 15 -5
15 -10 0 -6 3 -9 8 -9 24 4 42 -3 42 -16 0 -25 35 -17 125 29 47 24 85 41 85
37 0 -12 -72 -55 -121 -71 -65 -22 -74 -34 -22 -27 23 3 62 19 88 37 25 18 48
30 50 28 7 -7 -77 -68 -92 -68 -8 0 -11 -4 -8 -10 7 -12 54 10 74 34 24 29 30
17 16 -30 -12 -41 -12 -46 3 -50 9 -3 31 -12 49 -21 17 -8 36 -12 42 -9 6 4
11 0 11 -8 0 -8 -8 -17 -17 -19 -17 -4 -17 -5 0 -6 16 -1 17 -3 4 -16 -9 -8
-17 -19 -19 -23 -1 -5 -14 -12 -28 -16 -23 -6 -23 -6 -5 5 21 13 35 29 35 42
0 5 -5 5 -12 1 -6 -4 -8 -3 -5 4 4 5 4 17 1 26 -5 12 -10 13 -27 5 -17 -10
-19 -9 -13 6 5 15 4 16 -8 6 -11 -9 -15 -9 -19 1 -4 10 -10 7 -24 -7 -20 -23
-88 -49 -102 -40 -5 3 -12 1 -16 -5 -4 -6 -11 -8 -16 -5 -5 3 -6 0 -3 -8 3 -8
-3 -20 -12 -28 -12 -9 -15 -10 -10 -1 4 6 3 12 -3 12 -6 0 -14 -12 -17 -27 -4
-15 -14 -34 -21 -42 -8 -7 -11 -16 -8 -19 3 -4 10 0 14 7 7 10 21 12 56 6 44
-6 50 -4 71 21 27 31 33 12 8 -24 -11 -16 -22 -21 -35 -17 -10 4 -28 4 -38 0
-18 -6 -44 -53 -44 -81 0 -17 -17 -19 -17 -1 0 6 -12 21 -27 31 -14 11 -23 14
-19 8 4 -7 3 -12 -3 -12 -6 0 -9 -12 -8 -27 2 -23 -3 -29 -23 -31 -14 -2 -30
-8 -37 -14 -8 -6 -11 -4 -9 9 3 13 11 17 30 16 23 -2 26 0 16 13 -16 18 -36
18 -44 -2 -3 -8 -10 -13 -15 -10 -5 3 -15 -2 -22 -11 -12 -14 -12 -16 0 -9 9
6 12 5 9 -5 -3 -8 -11 -13 -17 -12 -6 2 -11 -2 -11 -8 0 -6 -7 -8 -16 -5 -14
5 -15 4 -4 -9 10 -12 10 -15 -4 -15 -9 0 -16 -5 -16 -12 0 -7 -12 -23 -28 -37
l-27 -24 29 7 c25 6 28 5 17 -7 -9 -12 -9 -16 1 -21 7 -3 3 -3 -9 0 -18 4 -26
-1 -35 -23 -7 -15 -26 -41 -42 -58 -15 -16 -25 -24 -22 -17 4 6 2 12 -3 12 -6
0 -11 -7 -11 -15 0 -8 -4 -15 -10 -15 -5 0 -10 -9 -10 -21 0 -18 -4 -20 -25
-15 -22 6 -25 3 -25 -19 0 -22 4 -25 33 -25 39 1 70 22 65 47 -3 22 50 95 64
87 5 -3 4 -11 -3 -20 -13 -16 -4 -64 12 -64 6 0 8 9 4 20 -5 14 -2 20 10 20 9
0 13 -4 10 -10 -3 -5 -1 -10 4 -10 21 0 10 -20 -14 -26 -14 -3 -25 -11 -25
-16 0 -6 8 -7 17 -4 9 4 20 1 25 -6 6 -10 8 -10 8 0 0 6 5 12 11 12 6 0 8 -9
4 -21 -6 -18 -5 -20 14 -10 12 7 21 8 21 3 0 -5 -11 -14 -25 -20 -19 -9 -25
-9 -25 1 -1 29 -22 -29 -24 -64 -2 -29 1 -38 11 -35 7 3 13 2 13 -2 0 -4 -13
-13 -30 -19 -36 -13 -39 -30 -7 -42 21 -9 21 -9 -7 -16 -18 -5 -31 -4 -35 4
-4 6 -18 11 -32 10 -21 0 -64 7 -64 11 0 7 -54 5 -68 -2 -17 -8 -17 -7 -7 12
6 12 9 24 6 28 -3 3 -6 0 -6 -7 0 -7 -6 -11 -14 -8 -8 3 -17 1 -19 -6 -2 -7
-8 -9 -12 -5 -4 4 -2 14 5 23 11 13 9 13 -23 0 -43 -18 -50 -19 -41 -4 4 8 -1
9 -17 3 -36 -12 -87 -12 -153 -2 -33 5 -62 5 -65 1 -3 -4 -32 -8 -64 -9 -34 0
-52 3 -45 8 13 8 -14 5 -105 -13 -26 -5 -62 -9 -78 -9 -27 0 -29 2 -15 15 8 8
24 15 35 15 15 0 21 6 21 23 0 16 -3 18 -9 8 -13 -21 -61 -6 -61 19 0 12 -7
20 -17 20 -15 0 -16 -2 -3 -10 13 -8 12 -10 -2 -10 -10 0 -18 6 -18 14 0 8 -5
18 -12 22 -7 5 -9 2 -5 -9 4 -11 2 -14 -9 -10 -7 3 -14 8 -14 12 0 4 -9 7 -20
7 -19 0 -20 -7 -20 -108 0 -101 1 -107 20 -105 11 1 20 5 20 10 0 5 9 5 20 2
31 -10 24 12 -7 23 -27 10 -26 10 15 11 23 1 42 -3 42 -7 0 -11 48 -34 79 -38
35 -4 36 -11 2 -29 -17 -8 -31 -20 -31 -25 0 -16 20 -12 26 5 4 8 10 15 16 15
5 0 7 -4 4 -8 -3 -5 2 -9 10 -9 8 0 13 6 10 12 -3 8 8 12 32 11 30 -1 36 -5
34 -20 -2 -11 1 -15 7 -11 6 3 15 -4 20 -17 6 -13 10 -17 10 -10 1 7 6 10 11
7 6 -3 10 -2 10 3 0 8 33 11 120 11 65 -1 83 -4 104 -16 13 -7 28 -8 43 -2 24
9 73 -13 73 -32 0 -14 -44 -21 -70 -11 -24 9 -61 -4 -111 -40 -13 -9 -21 -7
-40 5 -19 14 -20 17 -6 17 10 0 16 4 12 10 -3 5 -12 7 -21 3 -8 -3 -23 2 -34
12 -10 9 -24 14 -29 10 -6 -3 -11 -1 -11 4 0 6 -4 11 -10 11 -5 0 -7 -6 -4
-14 6 -17 -41 -49 -64 -43 -15 4 -15 5 1 6 9 0 17 8 17 16 0 11 -5 12 -23 6
-28 -11 -119 -2 -111 10 3 5 -3 9 -13 10 -14 0 -14 2 5 9 12 5 22 15 22 21 0
8 -4 8 -12 2 -16 -12 -49 -13 -42 -1 3 4 -4 8 -15 8 -21 0 -37 15 -24 23 5 2
3 2 -4 1 -7 -2 -15 1 -18 6 -4 6 -11 10 -16 10 -6 0 -7 -5 -4 -10 10 -15 -11
-12 -25 4 -6 8 -18 12 -26 9 -10 -4 -14 -25 -14 -85 l0 -81 40 6 c22 3 40 1
40 -4 0 -5 7 -9 15 -9 8 0 15 5 15 10 0 6 7 10 15 10 9 0 15 -9 15 -24 0 -19
4 -22 24 -19 27 6 45 -15 25 -28 -22 -13 -8 -17 65 -20 47 -2 71 1 74 9 2 7
-5 12 -15 12 -10 0 -25 5 -33 10 -10 6 3 9 42 7 31 -1 59 -5 63 -8 8 -8 -57
-57 -100 -75 -47 -19 -82 -18 -102 6 -27 31 -80 37 -104 11 -23 -25 -33 -26
-53 -6 -21 21 -22 20 -25 -29 -1 -31 2 -45 14 -49 19 -8 20 -36 0 -43 -18 -7
-20 -43 -3 -49 7 -3 184 -6 392 -7 281 -2 380 -6 383 -15 6 -18 -27 -31 -108
-44 -41 -6 -81 -15 -89 -20 -9 -5 357 -9 847 -9 l862 0 4 47 3 48 2 -47 c2
-46 3 -48 32 -48 30 0 30 1 30 55 0 48 2 55 20 55 11 0 20 -4 20 -10 0 -5 6
-7 14 -4 8 3 17 1 21 -5 15 -26 25 -7 26 52 1 34 4 52 6 40 4 -22 33 -33 33
-13 0 21 18 9 24 -16 5 -20 10 -24 19 -15 14 14 47 14 47 0 0 -8 4 -8 15 1 8
6 23 9 34 5 12 -3 26 -3 33 2 7 4 19 8 27 8 8 0 16 5 18 12 5 13 -13 18 -90
27 -26 3 -57 10 -67 16 -22 12 -28 59 -7 61 6 1 132 2 278 3 180 1 270 5 280
12 15 13 49 10 58 -3 9 -13 78 -8 96 7 8 7 15 20 16 29 0 12 2 11 8 -4 5 -11
7 -23 4 -28 -5 -8 9 -9 87 -7 30 1 102 -6 160 -14 98 -14 165 -19 234 -17 25
1 27 3 15 18 -27 32 -85 45 -285 63 -112 11 -212 23 -221 29 -10 5 -44 12 -75
16 -32 4 -58 11 -58 16 0 5 -17 9 -37 10 -21 1 -49 5 -63 9 -23 7 -23 8 10 10
19 1 61 2 93 2 31 0 57 4 57 9 0 6 6 7 13 2 18 -11 66 -16 48 -4 -23 15 3 20
50 10 24 -6 78 -11 119 -11 41 0 116 -9 165 -19 55 -11 91 -15 93 -9 5 15 22
12 19 -2 -1 -9 18 -13 70 -13 44 0 77 -5 84 -13 19 -18 126 -16 136 2 5 8 24
17 43 19 19 1 35 7 35 13 0 5 -6 8 -12 8 -7 -1 -13 2 -13 6 0 5 18 11 41 15
24 4 39 12 36 18 -3 8 8 12 28 13 17 0 45 10 62 22 17 12 34 18 38 14 5 -4 5
-1 1 6 -14 24 4 52 33 52 39 0 56 22 41 51 -10 17 -9 20 2 14 11 -7 11 -5 0 6
-8 9 -15 10 -20 4 -4 -6 -14 -10 -22 -10 -8 0 -14 -6 -12 -14 3 -12 0 -12 -13
-1 -13 11 -15 10 -10 -3 4 -8 2 -18 -4 -22 -6 -3 -11 -1 -11 6 0 7 -7 4 -15
-7 -14 -17 -14 -17 -3 11 7 17 17 33 23 37 6 5 2 8 -8 8 -9 0 -23 11 -29 25
-6 14 -14 25 -18 25 -4 0 -12 11 -18 24 -14 32 -46 41 -74 22 -12 -9 -30 -16
-40 -16 -9 0 -23 -6 -30 -12 -78 -74 -101 -90 -110 -77 -7 11 -11 11 -15 1 -2
-6 -9 -9 -14 -6 -17 10 -59 12 -59 3 0 -5 -5 -9 -11 -9 -5 0 -7 5 -3 12 13 20
-56 0 -86 -26 -16 -13 -49 -34 -74 -46 -50 -24 -55 -33 -28 -50 15 -10 15 -11
-3 -4 -11 3 -46 8 -78 9 -63 2 -80 10 -57 26 11 8 10 9 -7 4 -18 -5 -23 -2
-23 12 0 11 -3 14 -8 7 -4 -6 -18 -11 -32 -11 -14 0 -33 -4 -43 -8 -17 -7 -17
-9 4 -31 26 -28 20 -30 -21 -9 -16 8 -38 16 -49 18 -11 2 -24 6 -27 10 -11 10
-26 8 -19 -2 8 -15 -13 -23 -31 -13 -12 7 -13 11 -5 17 18 11 -6 35 -35 35
-13 0 -24 5 -24 11 0 6 -6 5 -15 -3 -8 -7 -21 -19 -29 -26 -9 -6 -13 -19 -10
-27 10 -24 -10 -17 -47 16 -27 26 -30 31 -13 27 14 -4 28 2 38 14 14 16 20 17
32 8 9 -8 14 -9 14 -2 0 6 -16 16 -35 23 -19 7 -37 19 -40 28 -6 16 14 33 32
26 7 -2 23 0 35 5 17 7 8 8 -34 6 -32 -2 -58 -1 -58 3 0 4 -13 8 -30 9 -17 1
-30 -3 -30 -9 0 -6 7 -9 14 -6 10 4 13 1 9 -9 -3 -7 0 -14 6 -14 6 0 11 5 11
11 0 5 5 7 10 4 8 -5 7 -12 -2 -23 -11 -14 -10 -15 6 -9 17 7 18 6 4 -15 -11
-17 -24 -23 -47 -22 -25 2 -29 -1 -21 -11 8 -9 8 -15 0 -20 -5 -3 -10 1 -10
10 0 11 -5 15 -15 12 -8 -4 -17 -2 -20 4 -4 5 -11 7 -16 3 -14 -8 -208 -7
-236 2 -38 11 -15 23 23 12 20 -5 54 -7 77 -4 41 6 63 16 35 16 -9 0 -26 20
-39 47 -12 26 -24 42 -27 35 -2 -7 -15 -12 -28 -12 -14 0 -23 -4 -19 -9 3 -5
-4 -13 -16 -16 -12 -4 -18 -12 -15 -20 9 -23 -40 4 -52 29 -9 18 -10 17 -7
-11 2 -18 6 -37 10 -43 3 -6 0 -7 -9 -4 -9 3 -14 10 -11 15 3 4 -10 11 -29 14
-24 5 -42 2 -60 -10 -14 -10 -32 -15 -40 -12 -7 3 -19 0 -25 -6 -8 -8 -11 -5
-11 12 0 18 -4 22 -18 16 -9 -4 -23 -8 -30 -8 -9 0 -8 -5 3 -17 14 -16 14 -18
-2 -25 -10 -4 -35 -8 -55 -9 -34 -1 -37 2 -43 30 -3 17 -2 40 1 50 6 16 4 16
-15 -3 -11 -12 -21 -29 -21 -38 0 -10 -6 -15 -17 -13 -10 2 -17 10 -15 17 2 9
-3 11 -13 7 -9 -3 -24 -6 -33 -7 -14 0 -13 -2 3 -9 16 -7 14 -8 -11 -7 -17 1
-37 8 -44 15 -10 11 -9 13 6 12 11 -1 30 -2 44 -1 19 1 21 4 11 10 -11 7 -9
10 9 13 13 1 25 9 28 16 2 7 -2 10 -12 6 -9 -3 -16 -2 -16 2 0 5 -11 9 -23 9
-24 0 -32 -23 -12 -37 6 -4 2 -8 -9 -8 -12 0 -16 5 -12 15 6 17 -9 21 -19 5
-5 -8 -11 -8 -19 -1 -9 7 -19 6 -34 -5 -20 -14 -22 -14 -22 0 0 19 -13 20 -57
4 -24 -9 -36 -9 -41 -2 -7 12 -102 14 -102 2 0 -3 -9 -4 -19 -1 -11 3 -28 0
-38 -7 -16 -10 -15 -11 9 -7 20 3 28 0 28 -10 0 -8 -4 -11 -10 -8 -5 3 -19 -3
-31 -14 -16 -15 -27 -18 -44 -11 -13 5 -26 6 -29 3 -3 -4 -6 -1 -6 6 0 9 -9
12 -26 8 -17 -3 -24 -1 -20 8 3 9 -2 11 -16 7 -13 -3 -16 -7 -8 -12 19 -12
-18 -17 -90 -13 -36 2 -69 9 -75 16 -7 8 -37 11 -92 9 -48 -2 -83 1 -83 7 0 5
-11 8 -25 6 -14 -1 -25 3 -25 8 0 6 -15 -4 -33 -21 -32 -31 -35 -32 -48 -16
-8 10 -9 15 -4 12 15 -9 31 3 40 31 5 17 4 22 -5 16 -10 -6 -10 -3 -2 10 5 10
17 20 26 21 19 3 21 -7 4 -24 -17 -17 -1 -27 19 -11 13 11 15 11 9 1 -6 -10
-1 -12 26 -7 18 3 83 14 143 23 l110 18 -3 27 c-1 15 1 27 7 27 5 0 7 10 3 22
-4 16 -2 19 9 13 11 -6 11 -5 2 5 -14 15 -7 68 13 90 7 8 16 28 20 43 4 19 9
25 14 17 4 -7 13 -9 20 -5 9 6 8 10 -4 17 -15 8 -15 12 3 36 29 42 91 106 139
146 24 20 40 36 35 36 -4 0 2 6 13 13 12 6 43 27 69 45 25 19 49 32 52 29 2
-3 -14 -29 -36 -57 -64 -81 -75 -152 -30 -195 12 -11 18 -14 14 -6 -6 10 -4
12 4 7 6 -4 9 -11 6 -16 -3 -4 2 -13 10 -20 8 -7 15 -9 15 -4 1 5 7 -2 15 -16
7 -14 11 -36 8 -49 -4 -17 -2 -22 6 -17 6 4 9 12 6 17 -4 5 0 9 8 9 9 0 17 14
20 38 4 20 15 70 27 111 11 41 20 98 20 127 0 37 4 54 15 58 10 3 15 -1 15
-12 0 -36 -31 -190 -51 -252 -11 -36 -22 -71 -25 -78 -2 -8 14 -21 41 -33 25
-11 49 -28 55 -39 14 -27 35 -16 54 28 13 32 13 15 -2 -28 -3 -8 11 1 30 21
50 51 77 133 91 267 11 108 7 146 -17 203 -5 10 -2 16 8 16 15 0 19 -16 31
-127 3 -30 11 -62 16 -70 14 -20 4 144 -12 188 -14 40 -6 53 12 20 8 -15 13
-67 13 -145 1 -76 4 -116 10 -106 5 9 7 71 4 137 -6 151 8 237 40 251 12 5 22
13 22 17 0 5 4 8 10 8 17 0 110 61 105 69 -2 5 7 6 20 3 15 -2 25 0 25 7 0 7
-5 9 -11 5 -7 -4 -10 -1 -7 7 3 8 11 14 19 14 16 0 52 24 62 42 5 7 0 9 -13 6
-10 -3 -22 -14 -25 -24 -4 -11 -11 -16 -17 -13 -13 8 35 54 56 54 29 0 74 33
148 107 42 42 76 78 75 79 -1 1 -17 4 -35 7 -55 9 -51 20 4 13 58 -7 81 7 69
45 -5 14 -3 19 4 15 6 -4 21 14 35 41 29 55 32 53 11 -7 -17 -49 -19 -63 -4
-37 6 9 14 15 18 13 5 -3 20 17 35 44 25 46 46 71 46 54 0 -4 -12 -41 -26 -82
-14 -41 -23 -76 -21 -78 7 -7 42 57 57 100 6 21 14 35 16 33 3 -3 -4 -29 -16
-58 -11 -30 -20 -55 -20 -57 0 -2 11 9 24 25 13 15 38 67 56 115 18 48 46 101
61 118 l29 31 0 -71 c0 -79 -4 -76 70 -48 23 9 24 10 8 22 -22 16 -23 49 -3
66 14 12 13 15 -5 35 -12 12 -20 28 -18 36 3 15 -21 19 -39 7 -7 -6 -14 -4
-19 3 -4 7 -3 9 4 5 6 -3 16 3 22 14 18 34 41 19 74 -45 23 -45 38 -62 61 -70
17 -5 33 -14 36 -18 3 -5 21 -9 39 -10 29 -2 35 -7 42 -35 6 -22 17 -36 35
-43 15 -5 37 -22 50 -37 27 -31 32 -67 8 -58 -17 6 -55 -27 -55 -48 0 -26 -28
-43 -83 -50 -46 -6 -61 -3 -101 18 -42 22 -50 24 -69 12 -12 -8 -38 -17 -58
-20 -35 -6 -37 -8 -53 -74 -10 -37 -29 -94 -43 -126 -23 -54 -24 -60 -9 -71
22 -17 20 -28 -5 -22 -16 4 -19 2 -15 -10 4 -9 11 -35 17 -59 9 -36 17 -45 45
-54 28 -10 33 -16 36 -48 2 -30 7 -37 23 -35 11 1 15 0 8 -3 -8 -4 -9 -13 -3
-30 10 -24 0 -67 -17 -77 -5 -3 -15 -2 -23 3 -17 10 -80 -19 -80 -37 0 -11 10
-13 43 -8 41 6 45 5 72 -30 l28 -38 116 7 c64 3 125 8 136 10 11 3 28 5 38 5
9 1 17 9 17 19 1 16 1 16 11 0 12 -21 75 -19 91 3 7 11 11 11 15 1 5 -12 35
-12 216 3 58 4 75 15 26 15 -19 0 -45 7 -57 16 -25 17 -31 47 -7 38 8 -4 15
-2 15 4 0 5 12 8 26 6 16 -1 27 3 31 14 9 22 23 32 51 32 14 0 22 -6 23 -17 0
-10 3 -13 5 -7 8 19 38 5 55 -25 12 -20 14 -33 7 -45 -6 -10 -7 -20 -4 -23 3
-4 6 0 6 7 0 9 5 7 14 -6 12 -15 17 -17 27 -7 17 17 29 16 29 -1 0 -11 10 -13
43 -9 59 8 87 20 87 38 0 14 16 18 65 17 46 -2 65 -7 62 -17 -3 -6 28 -11 84
-13 76 -3 89 -1 89 12 0 21 18 21 22 0 2 -12 18 -17 63 -20 140 -8 315 -8 315
0 0 4 8 5 18 0 9 -4 42 -8 72 -10 30 -2 68 -6 85 -9 16 -3 47 -8 70 -10 22 -2
50 -6 62 -9 13 -3 24 1 27 10 7 19 26 18 26 -1 0 -17 5 -17 35 -6 11 5 28 5
37 0 10 -5 49 -5 95 1 101 13 95 11 119 36 28 29 15 59 -35 81 -31 13 -37 20
-29 30 7 9 7 13 -1 13 -6 0 -11 9 -11 20 0 11 -4 20 -10 20 -6 0 -6 -9 0 -25
5 -14 7 -32 4 -40 -4 -8 -1 -15 5 -15 6 0 8 -7 5 -15 -4 -8 -14 -15 -23 -15
-14 0 -17 10 -17 58 0 50 -3 57 -20 57 -10 0 -22 5 -26 10 -4 6 -8 -3 -8 -19
0 -21 -4 -27 -16 -22 -9 3 -17 6 -20 6 -2 0 -1 6 2 13 3 8 -2 14 -10 14 -8 0
-13 -5 -9 -10 3 -5 -4 -4 -15 2 -27 15 -32 14 -32 -4 0 -8 -5 -15 -11 -15 -6
0 -9 7 -6 15 7 17 -9 30 -18 15 -5 -7 -12 -5 -22 7 -8 10 -12 12 -8 5 10 -19
-10 -14 -31 9 -11 12 -27 19 -39 17 -12 -3 -28 2 -36 11 -19 20 -21 54 -3 47
8 -3 14 0 14 5 0 6 9 9 19 6 15 -4 18 0 17 18 -2 18 1 22 18 19 12 -3 15 -2 9
2 -7 3 -13 10 -13 15 0 6 5 7 10 4 6 -3 10 0 10 8 0 19 73 83 78 69 2 -6 11
-8 19 -5 13 5 15 2 10 -12 -6 -15 -5 -16 7 -6 8 7 12 20 10 29 -5 15 -4 15 9
0 8 -10 17 -15 20 -11 4 3 7 1 7 -6 0 -8 5 -9 19 -1 11 5 47 10 80 10 42 0 61
4 62 13 0 6 4 3 9 -8 l9 -20 1 20 c1 20 1 20 15 1 9 -12 15 -15 15 -7 0 8 6
11 15 7 8 -3 14 0 12 7 -1 8 8 11 26 9 15 -1 27 1 27 5 0 4 12 9 28 10 92 7
112 10 118 16 4 4 22 7 40 7 18 0 36 5 39 10 3 6 28 10 55 10 43 0 52 4 72 30
27 37 51 38 69 3 17 -33 49 -40 49 -11 0 23 18 14 30 -16 7 -17 9 -17 9 -3 1
17 12 22 24 11 3 -4 22 -8 42 -9 l35 -2 0 69 0 70 -42 -8 c-24 -4 -65 -8 -93
-8 -42 -1 -52 -5 -60 -23 -14 -32 -22 -29 -40 13 -8 19 -19 33 -25 29 -6 -3
-26 10 -45 31 -31 33 -40 52 -36 76 0 4 -5 5 -13 2 -7 -3 -19 2 -26 10 -7 9
-17 13 -22 10 -6 -4 -14 0 -20 7 -7 12 -8 11 -7 -1 8 -56 -44 -101 -77 -68
-12 12 -13 20 -3 40 11 26 54 53 77 49 6 -1 12 3 12 9 0 5 -9 10 -21 10 -11 0
-18 4 -15 9 3 5 -3 11 -14 14 -11 3 -18 2 -15 -3 6 -10 -76 18 -92 31 -7 7
-13 6 -18 0 -4 -7 -16 -6 -35 4 -17 9 -32 15 -35 15 -3 0 -9 0 -14 0 -11 0
-21 40 -23 97 -1 23 -5 40 -10 37 -4 -3 -8 0 -8 5 0 6 5 11 12 11 6 0 8 3 5 6
-4 4 -13 1 -21 -5 -10 -9 -16 -9 -21 -1 -4 6 -13 9 -20 6 -9 -3 -11 2 -8 15 5
16 11 19 30 14 16 -4 22 -2 18 5 -3 5 -17 10 -30 10 -12 0 -26 7 -29 16 -3 8
-10 12 -16 9 -6 -3 -7 1 -4 9 4 10 1 16 -7 16 -11 0 -11 3 1 10 11 7 12 10 2
10 -8 0 -31 18 -52 40 -21 22 -43 40 -48 40 -6 0 -28 18 -51 40 -32 32 -40 36
-44 22 -4 -15 -5 -15 -6 1 0 10 -5 16 -9 13 -5 -3 -8 5 -8 16 1 17 -7 23 -34
29 -26 6 -37 4 -43 -7 -19 -34 -75 -7 -61 30 9 22 -21 13 -54 -16 -21 -18 -45
-27 -90 -32 -85 -10 -121 -1 -178 45 -27 21 -61 44 -76 50 -23 9 -27 16 -25
41 1 18 -3 33 -10 35 -7 3 -13 -3 -13 -13 0 -9 -3 -14 -6 -11 -10 9 -84 -52
-84 -69 0 -8 -7 -17 -15 -20 -18 -7 -20 -22 -2 -20 6 0 12 -3 12 -9 0 -5 -6
-9 -12 -9 -7 1 -13 -9 -13 -23 0 -17 -4 -22 -12 -17 -8 5 -7 0 2 -11 8 -10 10
-16 5 -13 -6 4 -31 -7 -55 -24 -25 -17 -60 -37 -78 -45 -30 -13 -36 -12 -66 6
-18 11 -41 29 -51 41 -10 11 -24 20 -32 20 -8 0 -28 7 -46 16 -36 19 -107 26
-107 11 0 -6 -3 -8 -6 -4 -4 3 -22 -5 -42 -18 -19 -13 -40 -21 -45 -18 -6 3
-7 1 -4 -4 4 -6 0 -16 -9 -23 -8 -7 -12 -20 -9 -28 4 -12 3 -13 -10 -2 -11 9
-15 9 -15 1 0 -9 -5 -9 -20 -1 -11 6 -20 17 -20 24 0 8 -7 17 -16 20 -8 3 -12
2 -9 -4 3 -6 -1 -7 -9 -4 -9 3 -16 13 -16 21 0 8 -4 12 -8 9 -5 -3 -28 25 -52
62 -50 77 -64 92 -80 92 -7 0 -10 8 -8 18 4 13 -1 18 -15 19 -11 1 -30 12 -43
24 -17 16 -24 18 -24 8 0 -11 -2 -11 -9 -1 -4 7 -12 12 -17 11 -21 -4 -28 2
-14 11 12 8 12 10 1 10 -14 0 -62 -46 -164 -158 -31 -35 -57 -61 -57 -57 0 3
27 34 59 69 33 35 76 87 96 115 20 28 41 49 46 46 4 -3 26 10 48 30 42 38 129
194 152 275 7 25 28 64 46 88 18 24 33 48 33 53 0 5 6 9 13 9 7 0 37 25 67 55
30 30 61 55 68 55 12 0 12 3 1 16 -11 13 -10 17 3 25 21 12 165 230 173 262 4
15 1 28 -10 37 -13 11 -32 9 -118 -10 -117 -26 -267 -78 -267 -93 0 -6 33 -8
93 -3 67 4 87 3 74 -5 -9 -5 -15 -14 -12 -20 3 -5 -1 -6 -9 -3 -9 4 -18 0 -21
-9 -4 -8 -28 -29 -55 -46 -27 -18 -66 -52 -86 -77 -28 -33 -48 -47 -81 -55
-24 -6 -46 -15 -49 -20 -7 -11 -54 -12 -54 -1 0 4 5 13 11 19 9 9 3 16 -24 29
-27 13 -45 34 -76 92 -44 82 -49 108 -26 151 15 30 11 41 -14 40 -12 0 -11 -3
4 -9 19 -8 19 -8 1 -16 -13 -5 -23 -2 -33 12 -12 16 -12 19 1 22 12 3 13 8 7
20 -6 11 -5 23 4 35 11 15 14 15 18 3 3 -8 2 -17 -4 -20 -5 -2 -4 -3 3 -2 7 2
12 13 11 25 -3 18 0 20 16 11 11 -5 22 -20 25 -32 3 -13 3 9 0 47 l-4 70 20
-25 c11 -14 26 -45 34 -70 l16 -45 -25 30 -24 30 6 -90 c7 -109 20 -153 53
-176 37 -26 82 -32 105 -15 19 14 19 15 -13 27 -22 7 -30 14 -22 19 9 5 9 9 1
14 -6 4 -11 13 -11 19 0 7 4 6 10 -3 9 -13 11 -13 19 0 5 8 7 18 4 24 -3 5 -1
6 6 2 6 -4 9 -12 6 -17 -8 -12 16 -12 34 0 12 8 13 12 1 25 -11 14 -10 16 5
10 16 -7 16 -5 -1 22 -10 16 -35 49 -56 74 -44 54 -58 107 -53 210 2 41 4 80
5 85 5 24 -1 35 -19 35 -44 0 -36 -199 12 -280 l20 -35 -37 35 c-21 19 -46 51
-56 71 -18 34 -18 37 -2 35 13 -1 17 9 20 52 3 52 -5 64 -28 37 -10 -12 -15
-12 -38 3 -25 16 -26 16 -19 -1 3 -9 3 -17 -2 -17 -4 0 -21 -12 -36 -26 -15
-14 -34 -23 -41 -20 -8 3 -18 -3 -24 -13 -10 -19 -86 -80 -144 -115 -17 -10
-96 -57 -176 -104 -80 -47 -158 -97 -175 -111 -18 -16 -24 -19 -15 -7 13 17
13 18 0 10 -77 -47 -159 -108 -155 -115 4 -5 0 -6 -8 -3 -8 3 -18 0 -23 -7 -4
-8 -3 -10 4 -5 7 4 12 5 12 2 0 -2 -21 -18 -47 -34 -40 -24 -117 -102 -320
-318 -12 -13 -20 -24 -17 -24 2 0 -11 -14 -31 -31 -20 -18 -34 -34 -31 -36 6
-6 -64 -98 -74 -98 -5 0 -12 -4 -17 -9 -5 -5 -3 -6 4 -2 24 14 13 -7 -26 -49
-22 -24 -61 -80 -87 -124 -26 -45 -51 -84 -56 -87 -12 -8 38 91 72 141 14 22
29 47 32 55 3 8 40 60 82 114 54 72 72 102 63 108 -9 6 -9 8 1 9 6 1 16 2 20
3 9 1 72 70 72 79 0 3 -9 3 -20 0 -44 -12 -112 39 -94 69 4 6 23 25 42 42 31
27 32 31 16 37 -40 16 -85 8 -150 -26 -36 -19 -72 -35 -80 -35 -8 0 -38 -13
-67 -30 -56 -32 -89 -36 -132 -20 -57 22 -73 20 -80 -8 l-7 -27 -9 23 c-5 13
-6 28 -3 33 3 5 -18 0 -46 -11 -28 -11 -59 -20 -70 -20 -11 0 -37 -9 -58 -20
-50 -26 -86 -13 -104 37 -7 18 -18 33 -24 33 -7 0 -15 9 -19 19 -12 39 -28 41
-74 10 -56 -37 -110 -39 -166 -4 -44 27 -93 49 -97 43 -7 -7 -68 45 -68 58 0
8 11 32 25 52 32 47 31 61 -4 119 -16 27 -32 64 -36 83 -15 75 -31 98 -75 111
-52 16 -57 28 -36 82 20 54 20 59 -3 86 -15 17 -28 21 -65 19 -59 -2 -92 21
-124 86 -32 64 -58 75 -127 51 -51 -17 -56 -17 -90 -1 -46 22 -69 72 -60 127
10 58 -1 91 -40 117 -19 12 -42 22 -50 22 -8 0 -15 3 -15 8 0 4 -16 18 -35 31
-32 22 -41 23 -113 17 -125 -11 -152 9 -132 100 13 55 7 89 -20 124 -20 25
-20 12 -20 -1608z m327 1130 c27 -17 15 -74 -20 -89 -16 -7 -28 -6 -44 5 -29
19 -29 37 2 67 25 26 41 30 62 17z m3163 -162 c0 -5 -5 -10 -11 -10 -5 0 -7 5
-4 10 3 6 8 10 11 10 2 0 4 -4 4 -10z m-185 -142 c-11 -6 -30 -20 -42 -31 -13
-11 -23 -16 -23 -9 0 15 49 52 69 52 13 -1 12 -3 -4 -12z m-105 -68 c-19 -17
-39 -30 -44 -30 -5 0 8 13 30 30 50 38 59 38 14 0z m-10 -54 c0 -2 -21 -20
-47 -41 l-48 -37 45 41 c45 41 50 45 50 37z m807 -52 c-3 -3 -12 -4 -19 -1 -8
3 -5 6 6 6 11 1 17 -2 13 -5z m-696 -37 c-13 -13 -26 -3 -16 12 3 6 11 8 17 5
6 -4 6 -10 -1 -17z m-47 -2 c-4 -8 -10 -15 -15 -15 -4 0 -6 7 -3 15 4 8 10 15
15 15 4 0 6 -7 3 -15z m-3124 -20 c0 -8 -4 -15 -10 -15 -5 0 -10 7 -10 15 0 8
5 15 10 15 6 0 10 -7 10 -15z m3090 5 c0 -5 -4 -10 -10 -10 -5 0 -10 5 -10 10
0 6 5 10 10 10 6 0 10 -4 10 -10z m-30 -11 c0 -5 -9 -9 -20 -9 -11 0 -20 4
-20 8 0 4 9 8 20 9 11 1 20 -2 20 -8z m864 -41 c-4 -7 -16 -23 -27 -36 -16
-17 -23 -19 -29 -10 -5 9 -8 8 -8 -5 0 -11 -4 -15 -12 -11 -8 5 1 18 27 41 39
34 62 43 49 21z m-769 -26 c-3 -3 -11 0 -18 7 -9 10 -8 11 6 5 10 -3 15 -9 12
-12z m-2721 -28 c22 -21 20 -41 -5 -54 -37 -20 -67 28 -37 58 16 16 23 15 42
-4z m2656 2 c0 -11 -19 -15 -25 -6 -3 5 1 10 9 10 9 0 16 -2 16 -4z m744 -15
c3 -5 -3 -11 -15 -14 -16 -4 -18 -3 -8 9 13 16 16 17 23 5z m-664 -10 c0 -4
-11 -6 -25 -3 -14 2 -25 6 -25 8 0 2 11 4 25 4 14 0 25 -4 25 -9z m105 -1 c3
-5 1 -10 -4 -10 -6 0 -11 5 -11 10 0 6 2 10 4 10 3 0 8 -4 11 -10z m-310 -31
c-4 -5 0 -9 8 -9 14 0 52 -36 52 -49 0 -3 6 -5 12 -5 7 1 11 -2 8 -6 -6 -10
54 -55 62 -46 4 3 0 6 -7 6 -7 0 -11 3 -8 6 10 9 142 -74 144 -91 1 -8 -2 -13
-7 -9 -5 3 -12 -2 -15 -10 -8 -20 -84 -18 -84 3 0 10 -8 12 -29 8 -24 -5 -28
-3 -24 11 3 11 -19 45 -57 92 -34 41 -68 88 -76 103 -15 28 -15 28 6 17 11 -6
18 -15 15 -21z m132 25 c-3 -3 -12 -4 -19 -1 -8 3 -5 6 6 6 11 1 17 -2 13 -5z
m63 -36 c0 -6 -7 -5 -15 2 -8 7 -15 17 -15 22 0 6 7 5 15 -2 8 -7 15 -17 15
-22z m-434 -26 c-17 -16 -18 -16 -5 5 7 12 15 20 18 17 3 -2 -3 -12 -13 -22z
m658 3 c15 -14 23 -25 17 -25 -5 0 -16 6 -23 13 -11 12 -16 12 -26 0 -17 -17
-32 -17 -32 2 0 9 6 12 15 9 9 -4 15 0 15 10 0 21 2 20 34 -9z m-3059 4 c13
-19 -4 -59 -25 -59 -22 0 -26 20 -10 51 12 21 25 25 35 8z m2850 -20 c15 -14
-7 -10 -35 7 l-25 15 25 -7 c14 -3 29 -10 35 -15z m590 11 c-4 -6 5 -8 22 -6
15 2 22 1 15 -1 -7 -3 -10 -8 -7 -13 3 -5 0 -12 -6 -16 -8 -4 -9 -3 -5 4 4 7
2 12 -3 12 -6 0 -11 -6 -11 -12 0 -9 -4 -8 -10 2 -8 12 -10 12 -10 1 0 -8 -3
-12 -6 -9 -6 7 13 48 22 48 3 0 2 -4 -1 -10z m-3175 -31 c0 -6 -4 -7 -10 -4
-5 3 -10 11 -10 16 0 6 5 7 10 4 6 -3 10 -11 10 -16z m2360 -19 c0 -5 -4 -10
-10 -10 -5 0 -10 5 -10 10 0 6 5 10 10 10 6 0 10 -4 10 -10z m254 0 c17 -6 26
-6 26 0 0 14 12 12 34 -5 20 -15 20 -15 0 -29 -12 -10 -21 -11 -25 -4 -4 6
-12 7 -18 4 -6 -4 -8 -12 -5 -18 4 -6 -2 -5 -15 2 -16 8 -20 17 -15 32 4 14 2
18 -5 14 -6 -4 -11 -2 -11 3 0 13 2 13 34 1z m-344 -20 c0 -5 -4 -10 -10 -10
-5 0 -10 5 -10 10 0 6 5 10 10 10 6 0 10 -4 10 -10z m-50 -10 c0 -5 -4 -10
-10 -10 -5 0 -10 5 -10 10 0 6 5 10 10 10 6 0 10 -4 10 -10z m105 0 c3 -5 -3
-10 -14 -10 -12 0 -21 5 -21 10 0 6 6 10 14 10 8 0 18 -4 21 -10z m50 0 c3 -5
-1 -10 -10 -10 -9 0 -13 5 -10 10 3 6 8 10 10 10 2 0 7 -4 10 -10z m45 0 c0
-5 -4 -10 -10 -10 -5 0 -10 5 -10 10 0 6 5 10 10 10 6 0 10 -4 10 -10z m-610
-4 c0 -2 -8 -10 -17 -17 -16 -13 -17 -12 -4 4 13 16 21 21 21 13z m250 -18 c0
-13 -23 -5 -28 10 -2 7 2 10 12 6 9 -3 16 -11 16 -16z m730 2 c-18 -12 -30
-13 -30 -2 0 4 10 9 22 9 18 2 20 0 8 -7z m-780 -10 c0 -5 -5 -10 -11 -10 -5
0 -7 5 -4 10 3 6 8 10 11 10 2 0 4 -4 4 -10z m231 -3 c-1 -12 -15 -9 -19 4 -3
6 1 10 8 8 6 -3 11 -8 11 -12z m159 -4 c0 -14 -28 -30 -41 -23 -8 5 -19 4 -26
-2 -9 -7 -13 -7 -13 1 0 6 -3 10 -7 10 -22 -4 -43 2 -43 11 0 6 10 8 23 6 77
-16 89 -16 84 -1 -4 9 -1 12 9 8 7 -3 14 -7 14 -10z m-210 -3 c0 -5 -4 -10
-10 -10 -5 0 -10 5 -10 10 0 6 5 10 10 10 6 0 10 -4 10 -10z m-215 -19 c3 -5
1 -12 -5 -16 -5 -3 -10 1 -10 9 0 18 6 21 15 7z m53 -12 c-2 -6 -8 -10 -13
-10 -5 0 -11 4 -13 10 -2 6 4 11 13 11 9 0 15 -5 13 -11z m202 -12 c10 -4 8
-6 -7 -6 -12 -1 -24 3 -27 8 -7 11 6 24 13 13 3 -5 13 -12 21 -15z m28 -2 c-3
-3 -9 2 -12 12 -6 14 -5 15 5 6 7 -7 10 -15 7 -18z m32 5 c0 -5 -2 -10 -4 -10
-3 0 -8 5 -11 10 -3 6 -1 10 4 10 6 0 11 -4 11 -10z m124 -32 c-3 -4 -18 -1
-33 7 -21 10 -31 11 -40 2 -8 -8 -11 -8 -11 0 0 6 5 13 12 15 16 6 77 -15 72
-24z m-464 -4 c0 -8 5 -12 10 -9 6 3 10 2 10 -4 0 -20 -19 -21 -29 -2 -14 25
-14 44 -1 36 6 -3 10 -13 10 -21z m47 0 c-9 -9 -28 6 -21 18 4 6 10 6 17 -1 6
-6 8 -13 4 -17z m-1577 6 c0 -5 -7 -10 -15 -10 -8 0 -15 5 -15 10 0 6 7 10 15
10 8 0 15 -4 15 -10z m1633 -10 c4 -17 2 -18 -14 -9 -22 11 -25 29 -5 29 7 0
16 -9 19 -20z m-148 0 c3 -5 1 -10 -4 -10 -6 0 -11 5 -11 10 0 6 2 10 4 10 3
0 8 -4 11 -10z m442 1 c7 7 12 5 16 -5 6 -16 -25 -32 -43 -21 -5 3 -10 0 -10
-8 0 -11 33 -21 120 -38 113 -22 118 -24 88 -34 -24 -8 -60 -7 -133 2 -55 7
-130 12 -167 13 -37 0 -69 4 -72 9 -6 8 8 12 112 27 23 4 42 10 42 14 0 5 -9
6 -20 3 -26 -7 -26 12 2 31 14 10 27 12 38 6 11 -6 21 -5 27 1z m137 -6 c-15
-12 -16 -14 -3 -15 22 0 20 -30 -2 -30 -9 0 -19 -4 -21 -8 -1 -4 -21 -3 -43 3
l-40 12 36 7 c20 3 44 15 54 26 10 11 23 20 28 20 6 0 2 -7 -9 -15z m406 -33
c0 -29 -47 -84 -104 -123 -96 -65 -295 -104 -333 -67 -15 15 -13 16 27 6 117
-30 338 70 380 172 14 33 30 40 30 12z m-940 -23 c0 -6 -7 -6 -20 1 -11 6 -20
15 -20 21 0 6 7 6 20 -1 11 -6 20 -15 20 -21z m1000 18 c0 -25 -56 -93 -107
-130 -54 -39 -149 -87 -173 -87 -8 0 11 11 44 25 82 34 166 101 196 158 25 47
40 59 40 34z m-370 -13 c0 -2 -9 -4 -21 -4 -11 0 -18 4 -14 10 5 8 35 3 35 -6z
m407 -16 c-39 -57 -65 -79 -30 -26 20 32 39 55 41 53 3 -2 -2 -15 -11 -27z
m-457 12 c0 -5 -8 -10 -17 -10 -15 0 -16 2 -3 10 19 12 20 12 20 0z m262 -23
c-15 -16 -61 -45 -101 -65 -68 -33 -83 -37 -155 -37 -62 0 -102 7 -168 28 -49
16 -90 33 -94 38 -8 13 1 12 133 -17 177 -39 275 -23 351 59 12 12 30 23 42
23 18 0 17 -3 -8 -29z m-872 -8 c0 -11 -11 -11 -29 0 -7 5 -10 14 -6 20 5 9
10 9 21 0 8 -6 14 -15 14 -20z m1091 -16 c-12 -20 -14 -14 -5 12 4 9 9 14 11
11 3 -2 0 -13 -6 -23z m-1191 -4 c11 -19 10 -20 -10 -9 -11 6 -18 15 -15 21 9
13 13 11 25 -12z m64 5 c18 -7 23 -38 5 -32 -6 2 -10 7 -9 12 1 5 -4 13 -12
17 -15 10 -7 12 16 3z m64 -32 c2 -7 -2 -10 -12 -6 -9 3 -16 11 -16 16 0 13
23 5 28 -10z m-453 -1 c3 -5 1 -12 -5 -16 -5 -3 -10 1 -10 9 0 18 6 21 15 7z
m292 -13 c-3 -8 -6 -5 -6 6 -1 11 2 17 5 13 3 -3 4 -12 1 -19z m105 -10 c3 1
12 -6 19 -14 11 -14 9 -15 -19 -11 -32 5 -66 30 -55 40 3 4 15 1 27 -5 11 -7
24 -11 28 -10z m1044 -37 c-34 -66 -42 -72 -25 -20 9 27 45 79 54 79 2 0 -12
-27 -29 -59z m-26 45 c0 -2 -8 -10 -17 -17 -16 -13 -17 -12 -4 4 13 16 21 21
21 13z m-1140 -27 c0 -6 -4 -7 -10 -4 -5 3 -10 11 -10 16 0 6 5 7 10 4 6 -3
10 -11 10 -16z m239 7 c19 -23 -4 -28 -24 -6 -15 17 -16 20 -3 20 9 0 21 -6
27 -14z m141 -6 c13 -8 12 -11 -5 -24 -17 -13 -20 -13 -23 0 -2 8 -8 14 -13
14 -5 0 -9 5 -9 10 0 13 30 13 50 0z m83 3 c-7 -2 -19 -2 -25 0 -7 3 -2 5 12
5 14 0 19 -2 13 -5z m-573 -13 c0 -5 -2 -10 -4 -10 -3 0 -8 5 -11 10 -3 6 -1
10 4 10 6 0 11 -4 11 -10z m172 -10 c16 -15 18 -20 7 -20 -16 0 -39 19 -39 32
0 13 9 9 32 -12z m452 -11 c14 -7 0 -8 -46 -4 -40 3 -69 1 -73 -5 -3 -5 -11
-10 -17 -10 -6 0 -3 9 8 21 16 17 26 20 63 14 24 -4 53 -11 65 -16z m-849 1
c4 -6 -10 -10 -34 -10 -23 0 -41 5 -41 10 0 6 15 10 34 10 19 0 38 -4 41 -10z
m461 -28 c-9 -8 -26 10 -26 26 1 15 2 15 15 -2 8 -11 13 -21 11 -24z m-1256
24 c0 -3 -4 -8 -10 -11 -5 -3 -10 -1 -10 4 0 6 5 11 10 11 6 0 10 -2 10 -4z
m1388 -21 c6 -13 8 -27 3 -29 -7 -5 -31 34 -31 49 0 15 18 1 28 -20z m-225 2
c4 3 7 -1 7 -10 0 -24 -13 -21 -29 6 -13 19 -12 21 1 10 8 -7 18 -10 21 -6z
m404 7 c-3 -3 -12 -4 -19 -1 -8 3 -5 6 6 6 11 1 17 -2 13 -5z m-497 -14 c0 -5
-4 -10 -10 -10 -5 0 -10 5 -10 10 0 6 5 10 10 10 6 0 10 -4 10 -10z m640 0
c13 -8 12 -10 -2 -10 -10 0 -18 -4 -18 -10 0 -5 -7 -7 -15 -4 -8 4 -15 12 -15
20 0 16 28 18 50 4z m-940 -9 c0 -4 -11 -6 -25 -3 -14 2 -25 6 -25 8 0 2 11 4
25 4 14 0 25 -4 25 -9z m465 -39 c-7 -7 -45 29 -45 41 0 6 11 0 25 -13 14 -13
23 -26 20 -28z m-87 -11 c-12 -4 -28 17 -28 39 0 10 7 7 20 -10 11 -15 15 -26
8 -29z m327 39 c3 -5 1 -10 -4 -10 -6 0 -11 5 -11 10 0 6 2 10 4 10 3 0 8 -4
11 -10z m-735 -10 c19 -12 -37 -13 -95 -1 -39 8 -38 9 20 10 33 0 67 -4 75 -9z
m460 -30 c0 -18 -19 -11 -30 11 -11 19 -10 20 9 9 12 -6 21 -15 21 -20z m-485
-12 c7 -7 -9 -9 -54 -4 -35 3 -75 6 -87 6 -13 0 -24 5 -24 11 0 15 150 3 165
-13z m307 -23 c11 -20 11 -20 -11 -1 -11 11 -21 26 -21 35 0 14 2 14 10 1 6
-8 16 -24 22 -35z m678 41 c0 -11 -19 -15 -25 -6 -3 5 1 10 9 10 9 0 16 -2 16
-4z m-2250 -26 c0 -5 -4 -10 -10 -10 -5 0 -10 5 -10 10 0 6 5 10 10 10 6 0 10
-4 10 -10z m1615 0 c3 -5 1 -10 -4 -10 -6 0 -11 5 -11 10 0 6 2 10 4 10 3 0 8
-4 11 -10z m-410 -18 c28 -4 46 -10 40 -13 -15 -9 -215 2 -215 12 0 10 101 10
175 1z m1015 -12 c0 -5 -2 -10 -4 -10 -3 0 -8 5 -11 10 -3 6 -1 10 4 10 6 0
11 -4 11 -10z m-2280 -10 c0 -5 -7 -10 -16 -10 -8 0 -12 5 -9 10 3 6 10 10 16
10 5 0 9 -4 9 -10z m1600 0 c0 -5 -4 -10 -10 -10 -5 0 -10 5 -10 10 0 6 5 10
10 10 6 0 10 -4 10 -10z m-331 -26 c13 -12 -18 -19 -77 -16 -37 1 -91 -2 -119
-6 -47 -8 -53 -7 -53 9 0 14 10 19 43 22 45 5 199 -2 206 -9z m320 -39 c0 -5
-6 -1 -14 9 -8 11 -15 24 -15 30 0 5 7 1 15 -10 8 -10 14 -23 14 -29z m707 36
c-4 -5 0 -11 6 -14 8 -2 9 -8 4 -13 -5 -5 -11 -4 -13 3 -2 7 -11 9 -19 6 -8
-3 -14 0 -14 7 0 6 5 8 10 5 6 -3 10 -1 10 4 0 6 5 11 11 11 5 0 8 -4 5 -9z
m537 -14 c3 -7 -3 -13 -13 -13 -10 0 -16 6 -13 13 3 7 9 13 13 13 4 0 10 -6
13 -13z m-1159 -76 c-7 -7 -54 45 -54 59 0 6 14 -4 30 -22 17 -17 28 -34 24
-37z m-433 45 c-10 -11 -133 -28 -208 -28 -13 0 -20 -4 -17 -9 3 -5 -1 -9 -10
-9 -8 0 -21 -3 -30 -6 -17 -7 -21 12 -8 34 12 18 83 30 191 31 77 1 92 -1 82
-13z m459 -6 c0 -5 -2 -10 -4 -10 -3 0 -8 5 -11 10 -3 6 -1 10 4 10 6 0 11 -4
11 -10z m-1356 -21 c-3 -5 -10 -7 -15 -3 -5 3 -7 10 -3 15 3 5 10 7 15 3 5 -3
7 -10 3 -15z m1231 1 c3 -5 1 -10 -4 -10 -6 0 -11 5 -11 10 0 6 2 10 4 10 3 0
8 -4 11 -10z m55 -32 c0 -6 -7 -5 -15 2 -8 7 -15 17 -15 22 0 6 7 5 15 -2 8
-7 15 -17 15 -22z m737 17 c-4 -8 -2 -17 4 -20 5 -4 6 -11 3 -17 -5 -7 1 -9
15 -5 22 5 22 5 5 -14 -10 -11 -12 -19 -6 -19 20 0 13 -18 -8 -25 -16 -5 -19
-12 -14 -28 6 -21 6 -22 -14 -4 -13 12 -22 15 -27 8 -9 -16 -32 -13 -39 5 -5
12 -1 14 15 9 14 -5 19 -3 15 3 -3 6 0 13 6 16 7 3 3 3 -9 0 -13 -3 -23 -1
-23 5 0 6 5 11 11 11 5 0 7 5 4 10 -3 6 -1 10 5 10 14 0 41 26 39 37 -3 19 2
33 12 33 6 0 9 -7 6 -15z m-2439 -7 c20 -20 14 -54 -13 -66 -34 -16 -55 -5
-55 27 0 30 16 51 40 51 9 0 21 -5 28 -12z m599 -22 c-4 -9 -11 -16 -17 -16
-17 0 -24 31 -9 41 18 11 34 -5 26 -25z m673 19 c-12 -11 -116 -34 -175 -38
-6 0 -17 -7 -24 -15 -12 -12 -11 -13 5 -9 27 8 135 27 153 27 12 0 11 -4 -4
-19 -11 -10 -54 -26 -95 -35 -41 -10 -96 -29 -122 -42 -26 -13 -49 -24 -51
-24 -3 0 -2 11 0 24 4 17 18 30 52 45 25 11 34 18 19 15 -20 -4 -29 -1 -38 15
-9 18 -7 22 14 31 49 18 162 38 221 39 52 1 58 -1 45 -14z m340 -6 c0 -6 -4
-7 -10 -4 -5 3 -10 11 -10 16 0 6 5 7 10 4 6 -3 10 -11 10 -16z m70 -35 c0 -8
-4 -12 -10 -9 -5 3 -10 13 -10 21 0 8 5 12 10 9 6 -3 10 -13 10 -21z m-235 6
c3 -5 1 -10 -4 -10 -6 0 -11 5 -11 10 0 6 2 10 4 10 3 0 8 -4 11 -10z m-884
-13 c-1 -12 -15 -9 -19 4 -3 6 1 10 8 8 6 -3 11 -8 11 -12z m1029 3 c0 -5 -2
-10 -4 -10 -3 0 -8 5 -11 10 -3 6 -1 10 4 10 6 0 11 -4 11 -10z m40 -17 c0
-14 2 -15 9 -4 6 10 10 10 16 1 10 -16 0 -23 -23 -16 -25 8 -37 36 -17 36 8 0
15 -8 15 -17z m-64 -21 c-4 -3 -14 2 -24 12 -16 18 -16 18 6 6 13 -6 21 -14
18 -18z m184 -15 c0 -5 -7 -4 -15 3 -8 7 -15 20 -15 29 1 13 3 13 15 -3 8 -11
15 -24 15 -29z m1075 33 c3 -5 1 -10 -4 -10 -6 0 -11 5 -11 10 0 6 2 10 4 10
3 0 8 -4 11 -10z m175 -15 c0 -8 -4 -15 -9 -15 -5 0 -11 7 -15 15 -3 9 0 15 9
15 8 0 15 -7 15 -15z m-1801 -21 c-18 -22 -57 -40 -104 -49 -22 -3 -64 -15
-92 -25 -29 -10 -55 -15 -58 -11 -7 13 124 69 196 85 35 8 66 14 68 15 2 1 -2
-6 -10 -15z m81 12 c0 -3 -4 -8 -10 -11 -5 -3 -10 -1 -10 4 0 6 5 11 10 11 6
0 10 -2 10 -4z m250 -28 c0 -6 -7 -5 -15 2 -8 7 -15 17 -15 22 0 6 7 5 15 -2
8 -7 15 -17 15 -22z m80 22 c0 -5 -2 -10 -4 -10 -3 0 -8 5 -11 10 -3 6 -1 10
4 10 6 0 11 -4 11 -10z m120 -48 c0 -3 -9 3 -20 13 -11 10 -20 23 -20 28 0 6
9 0 20 -13 11 -13 20 -25 20 -28z m-150 18 c0 -11 -2 -20 -4 -20 -2 0 -6 9 -9
20 -3 11 -1 20 4 20 5 0 9 -9 9 -20z m220 5 c7 -8 8 -15 2 -15 -5 0 -15 7 -22
15 -7 8 -8 15 -2 15 5 0 15 -7 22 -15z m2738 -19 c3 -12 -1 -17 -10 -14 -7 3
-15 13 -16 22 -3 12 1 17 10 14 7 -3 15 -13 16 -22z m-268 4 c0 -5 -4 -10 -10
-10 -5 0 -10 5 -10 10 0 6 5 10 10 10 6 0 10 -4 10 -10z m-1872 -13 c7 -5 12
-3 12 3 0 6 5 8 11 4 8 -5 8 -8 0 -14 -17 -10 -54 -5 -58 7 -4 12 15 12 35 0z
m282 -29 c0 -10 -4 -18 -10 -18 -5 0 -10 5 -10 12 0 7 -16 -4 -36 -23 l-37
-34 39 52 c37 52 53 55 54 11z m-2537 26 c3 -4 1 -16 -5 -27 -9 -18 -11 -19
-20 -4 -13 25 6 49 25 31z m1002 -22 c-16 -15 -30 -29 -30 -32 -1 -25 -128
-120 -142 -106 -13 13 10 35 72 66 37 19 63 36 58 37 -6 2 -40 -11 -76 -30
-62 -32 -68 -33 -82 -17 -14 15 -10 18 41 40 41 17 52 25 42 32 -10 8 -9 9 4
4 9 -3 41 3 70 14 72 25 78 24 43 -8z m345 8 c6 -11 9 -20 7 -20 -2 0 -12 9
-22 20 -10 11 -13 20 -7 20 6 0 16 -9 22 -20z m459 -18 c0 -24 -1 -25 -9 -7
-12 28 -12 47 0 40 6 -3 10 -18 9 -33z m191 28 c-9 -6 -10 -10 -3 -10 6 0 11
-8 10 -18 -1 -18 -3 -18 -36 2 l-36 21 30 6 c45 10 51 10 35 -1z m570 0 c0 -5
-5 -10 -11 -10 -5 0 -7 5 -4 10 3 6 8 10 11 10 2 0 4 -4 4 -10z m1163 -20 c18
-20 22 -30 13 -30 -8 0 -16 -7 -20 -15 -8 -22 -44 -18 -56 6 -16 28 -4 69 19
69 10 0 30 -13 44 -30z m-3178 0 c0 -7 -5 -15 -12 -17 -7 -3 -11 4 -10 16 1
23 22 23 22 1z m865 10 c0 -5 -2 -10 -4 -10 -3 0 -8 5 -11 10 -3 6 -1 10 4 10
6 0 11 -4 11 -10z m467 4 c-3 -3 -12 -4 -19 -1 -8 3 -5 6 6 6 11 1 17 -2 13
-5z m49 -9 c8 -8 23 -19 32 -24 9 -5 13 -13 9 -18 -5 -4 -14 0 -21 10 -18 23
-29 22 -16 -3 6 -11 7 -20 3 -20 -4 0 -2 -5 5 -12 14 -14 16 -38 3 -38 -9 0
-22 28 -27 59 -2 7 -7 18 -13 24 -9 9 -5 37 6 37 2 0 11 -7 19 -15z m124 -1
c0 -8 -4 -12 -10 -9 -5 3 -10 10 -10 16 0 5 5 9 10 9 6 0 10 -7 10 -16z m-440
-24 c0 -14 -28 -1 -34 16 -4 12 -2 12 14 4 11 -6 20 -15 20 -20z m80 -2 c0 -6
-7 -5 -15 2 -8 7 -15 17 -15 22 0 6 7 5 15 -2 8 -7 15 -17 15 -22z m895 22 c3
-5 1 -10 -4 -10 -6 0 -11 5 -11 10 0 6 2 10 4 10 3 0 8 -4 11 -10z m-712 -30
c3 -11 1 -20 -4 -20 -5 0 -9 3 -10 8 0 4 -2 15 -4 25 -4 23 11 12 18 -13z
m374 24 c-3 -3 -12 -4 -19 -1 -8 3 -5 6 6 6 11 1 17 -2 13 -5z m934 -7 c-1
-12 -15 -9 -19 4 -3 6 1 10 8 8 6 -3 11 -8 11 -12z m-2751 -1 c0 -3 -4 -8 -10
-11 -5 -3 -10 -1 -10 4 0 6 5 11 10 11 6 0 10 -2 10 -4z m407 -12 c-16 -9 -31
-13 -34 -10 -3 3 5 10 18 15 37 15 47 12 16 -5z m483 -16 c0 -6 -7 -5 -15 2
-8 7 -15 17 -15 22 0 6 7 5 15 -2 8 -7 15 -17 15 -22z m100 0 c0 -6 -7 -5 -15
2 -8 7 -15 17 -15 22 0 6 7 5 15 -2 8 -7 15 -17 15 -22z m150 0 c0 -10 -36 7
-45 22 -4 6 5 5 19 -2 14 -6 26 -15 26 -20z m2410 9 c0 -30 -10 -40 -26 -26
-10 8 -11 16 -3 30 14 26 29 24 29 -4z m-4294 -4 c20 -13 24 -21 19 -42 -11
-44 -47 -54 -85 -23 -20 16 -21 21 -10 43 23 42 38 47 76 22z m1343 -23 c-13
-22 -26 -40 -30 -40 -4 0 -10 -9 -14 -19 -3 -11 -12 -18 -19 -15 -7 3 -18 -7
-25 -22 -6 -15 -14 -24 -18 -21 -7 7 44 77 56 77 5 0 20 18 35 40 14 22 29 40
32 40 3 0 -5 -18 -17 -40z m151 30 c0 -5 -2 -10 -4 -10 -3 0 -8 5 -11 10 -3 6
-1 10 4 10 6 0 11 -4 11 -10z m1410 -21 c0 -22 -29 -26 -48 -7 -10 10 -7 15
10 24 27 15 38 10 38 -17z m-830 -38 c0 -9 -7 -3 -15 13 -19 36 -19 47 0 22 8
-11 15 -27 15 -35z m230 39 c0 -5 -10 -10 -22 -10 -19 0 -20 2 -8 10 19 13 30
13 30 0z m-685 -38 c-6 -7 -35 18 -35 31 0 5 9 2 20 -8 11 -10 18 -20 15 -23z
m81 24 c15 -16 18 -26 6 -26 -4 0 -13 9 -20 20 -14 23 -7 26 14 6z m1412 -3
c13 -26 4 -43 -23 -43 -31 0 -39 14 -23 40 16 25 34 26 46 3z m576 9 c2 -4 -2
-16 -10 -27 -10 -14 -17 -16 -25 -8 -7 7 -9 19 -6 27 7 17 32 22 41 8z m-2214
-12 c0 -5 -2 -10 -4 -10 -3 0 -8 5 -11 10 -3 6 -1 10 4 10 6 0 11 -4 11 -10z
m464 -6 c3 -8 2 -12 -4 -9 -6 3 -10 10 -10 16 0 14 7 11 14 -7z m881 -9 c0
-26 -21 -30 -28 -6 -2 11 -2 22 1 26 11 10 27 -2 27 -20z m175 15 c0 -5 -4
-10 -10 -10 -5 0 -10 5 -10 10 0 6 5 10 10 10 6 0 10 -4 10 -10z m1399 -32
c-10 -18 -12 -19 -27 -5 -13 13 -13 19 -2 32 19 23 44 0 29 -27z m-2869 11 c0
-6 -4 -7 -10 -4 -5 3 -10 11 -10 16 0 6 5 7 10 4 6 -3 10 -11 10 -16z m76 -36
c-8 -9 -35 10 -39 29 -5 19 -5 19 19 -3 13 -12 22 -24 20 -26z m169 36 c11
-17 -1 -21 -15 -4 -8 9 -8 15 -2 15 6 0 14 -5 17 -11z m449 -5 c9 -24 2 -26
-12 -4 -7 11 -8 20 -3 20 5 0 12 -7 15 -16z m90 1 c3 -8 1 -15 -4 -15 -6 0
-10 7 -10 15 0 8 2 15 4 15 2 0 6 -7 10 -15z m421 -14 c-8 -17 -21 -33 -27
-37 -8 -5 -7 1 3 16 8 14 19 31 23 38 15 25 16 11 1 -17z m205 13 c0 -8 -5
-12 -10 -9 -6 4 -8 11 -5 16 9 14 15 11 15 -7z m790 6 c0 -5 -4 -10 -10 -10
-5 0 -10 5 -10 10 0 6 5 10 10 10 6 0 10 -4 10 -10z m-3923 -16 c8 -20 -13
-42 -27 -28 -12 12 -3 44 11 44 5 0 12 -7 16 -16z m1877 0 c5 -14 4 -15 -9 -4
-17 14 -19 20 -6 20 5 0 12 -7 15 -16z m154 -9 c-3 -3 -9 2 -12 12 -6 14 -5
15 5 6 7 -7 10 -15 7 -18z m-848 -4 c0 -24 -18 -37 -31 -24 -13 13 -1 43 17
43 8 0 14 -9 14 -19z m2645 11 c28 -20 36 -41 25 -61 -15 -30 -56 -27 -77 5
-16 26 -16 27 6 45 26 21 31 22 46 11z m265 -2 c0 -5 -4 -10 -10 -10 -5 0 -10
5 -10 10 0 6 5 10 10 10 6 0 10 -4 10 -10z m-3422 -24 c4 -18 -24 -56 -40 -56
-18 0 -20 31 -3 56 18 27 38 28 43 0z m280 2 c-4 -29 -38 -38 -38 -10 0 22 8
32 27 32 9 0 13 -8 11 -22z m427 -23 c-49 -43 -81 -58 -73 -32 4 11 105 77
118 77 3 -1 -17 -21 -45 -45z m919 29 c3 -8 2 -12 -4 -9 -6 3 -10 10 -10 16 0
14 7 11 14 -7z m186 -23 c-1 -13 -3 -13 -15 3 -19 26 -19 42 0 26 8 -7 15 -20
15 -29z m1498 3 c-10 -10 -28 6 -28 24 0 15 1 15 17 -1 9 -9 14 -19 11 -23z
m-2017 9 c12 -15 12 -16 -4 -10 -10 4 -23 7 -28 7 -5 0 -9 5 -9 10 0 16 26 12
41 -7z m453 6 c28 -13 43 -39 22 -39 -7 0 -22 11 -34 25 -25 28 -23 30 12 14z
m627 1 c21 -12 26 -60 6 -60 -27 0 -50 26 -43 48 8 25 10 26 37 12z m497 -8
c2 -7 -3 -12 -12 -12 -9 0 -16 7 -16 16 0 17 22 14 28 -4z m-1530 -11 c3 -8
-1 -12 -9 -9 -7 2 -15 10 -17 17 -3 8 1 12 9 9 7 -2 15 -10 17 -17z m-1123
-21 c-5 -8 -11 -8 -17 -2 -6 6 -7 16 -3 22 5 8 11 8 17 2 6 -6 7 -16 3 -22z
m780 20 c3 -5 1 -10 -4 -10 -6 0 -11 5 -11 10 0 6 2 10 4 10 3 0 8 -4 11 -10z
m700 -11 c-4 -5 -12 -9 -18 -8 -9 0 -8 2 1 6 6 2 9 10 6 15 -4 7 -2 8 5 4 6
-4 9 -12 6 -17z m595 12 c0 -12 -20 -25 -27 -18 -7 7 6 27 18 27 5 0 9 -4 9
-9z m-662 -29 c2 -7 -1 -12 -7 -12 -6 0 -11 5 -11 10 0 6 -7 10 -15 10 -8 0
-15 4 -15 10 0 13 43 -4 48 -18z m-578 3 c11 -13 10 -14 -4 -9 -9 3 -16 10
-16 15 0 13 6 11 20 -6z m415 6 c3 -5 0 -13 -6 -17 -7 -4 -9 -3 -5 4 3 5 0 13
-6 15 -9 4 -10 6 -1 6 6 1 14 -3 18 -8z m275 -1 c0 -5 -5 -10 -11 -10 -5 0 -7
5 -4 10 3 6 8 10 11 10 2 0 4 -4 4 -10z m-1058 -38 c-23 -20 -42 -41 -42 -46
0 -5 10 -1 22 10 16 14 15 10 -6 -18 -16 -21 -29 -38 -30 -38 -7 0 8 67 18 79
11 14 67 51 76 51 3 0 -14 -17 -38 -38z m288 23 c0 -8 -2 -15 -4 -15 -2 0 -6
7 -10 15 -3 8 -1 15 4 15 6 0 10 -7 10 -15z m350 -7 c0 -6 -6 -5 -15 2 -8 7
-15 14 -15 16 0 2 7 1 15 -2 8 -4 15 -11 15 -16z m250 1 c0 -6 -4 -7 -10 -4
-5 3 -10 11 -10 16 0 6 5 7 10 4 6 -3 10 -11 10 -16z m1710 11 c0 -5 -4 -10
-10 -10 -5 0 -10 5 -10 10 0 6 5 10 10 10 6 0 10 -4 10 -10z m-690 -45 c-15
-28 -38 -33 -46 -10 -4 9 4 23 17 34 31 25 48 11 29 -24z m-1030 -11 c0 -2 -8
0 -17 3 -16 6 -16 5 -4 -10 9 -11 10 -17 2 -17 -6 0 -11 3 -12 8 0 4 -3 20 -5
37 l-5 30 20 -24 c12 -13 21 -25 21 -27z m960 31 c10 -13 10 -19 -5 -35 -10
-11 -21 -17 -26 -14 -4 2 -13 -4 -19 -15 -7 -13 -7 -22 0 -26 17 -10 11 -25
-10 -25 -22 0 -27 19 -9 37 8 8 8 17 1 30 -8 14 -6 23 10 41 25 26 41 28 58 7z
m1260 5 c0 -5 -2 -10 -4 -10 -3 0 -8 5 -11 10 -3 6 -1 10 4 10 6 0 11 -4 11
-10z m595 -20 c-5 -8 -11 -8 -17 -2 -6 6 -7 16 -3 22 5 8 11 8 17 2 6 -6 7
-16 3 -22z m-3755 10 c0 -5 -4 -10 -10 -10 -5 0 -10 5 -10 10 0 6 5 10 10 10
6 0 10 -4 10 -10z m410 -5 c7 -9 8 -15 2 -15 -5 0 -12 7 -16 15 -3 8 -4 15 -2
15 2 0 9 -7 16 -15z m97 -7 c-3 -8 -6 -5 -6 6 -1 11 2 17 5 13 3 -3 4 -12 1
-19z m521 -39 c-3 -18 0 -25 8 -22 6 2 19 -6 28 -19 9 -13 20 -23 24 -23 4 -1
18 -5 31 -9 18 -6 21 -10 10 -17 -12 -8 -12 -10 1 -18 8 -6 12 -13 8 -16 -3
-4 -17 1 -30 9 -14 9 -27 13 -31 10 -4 -4 -14 7 -24 25 -18 32 -37 43 -27 16
4 -8 3 -15 -1 -15 -12 0 -65 34 -65 41 0 12 40 -3 41 -15 1 -6 5 5 8 24 8 41
5 51 -14 44 -8 -3 -11 -13 -8 -22 5 -15 3 -14 -15 2 -25 22 -21 36 10 28 18
-4 20 -2 15 17 -5 22 -5 22 14 5 14 -12 19 -28 17 -45z m22 51 c0 -5 -2 -10
-4 -10 -3 0 -8 5 -11 10 -3 6 -1 10 4 10 6 0 11 -4 11 -10z m90 -15 c0 -12
-29 -3 -34 10 -4 13 -2 14 14 5 11 -6 20 -13 20 -15z m-810 5 c0 -5 -2 -10 -4
-10 -3 0 -8 5 -11 10 -3 6 -1 10 4 10 6 0 11 -4 11 -10z m558 -15 c1 -14 -3
-25 -8 -25 -11 0 -14 33 -3 43 9 9 8 10 11 -18z m2187 7 c0 -18 -20 -15 -23 4
-3 10 1 15 10 12 7 -3 13 -10 13 -16z m-2933 -14 c-7 -7 -12 -8 -12 -2 0 6 3
14 7 17 3 4 9 5 12 2 2 -3 -1 -11 -7 -17z m642 6 c3 -8 2 -12 -4 -9 -6 3 -10
10 -10 16 0 14 7 11 14 -7z m3126 6 c8 -5 11 -10 5 -10 -5 0 -17 5 -25 10 -8
5 -10 10 -5 10 6 0 17 -5 25 -10z m-3495 -48 c-5 -5 -45 36 -45 46 0 3 11 -5
25 -18 14 -13 23 -26 20 -28z m698 17 c7 -25 3 -24 -17 6 -13 19 -13 23 -2 19
8 -3 16 -14 19 -25z m-1009 -3 c-3 -9 -10 -16 -15 -16 -5 0 -4 9 3 20 14 22
21 20 12 -4z m397 7 c13 -15 12 -15 -11 -3 -34 17 -36 20 -18 20 9 0 22 -7 29
-17z m1471 -38 c15 -20 7 -35 -17 -35 -27 0 -30 4 -39 59 l-6 35 27 -25 c15
-13 31 -28 35 -34z m-882 -7 c0 -6 -9 1 -20 15 -11 14 -20 29 -20 34 1 11 40
-37 40 -49z m981 39 c-1 -12 -15 -9 -19 4 -3 6 1 10 8 8 6 -3 11 -8 11 -12z
m559 9 c0 -3 -4 -8 -10 -11 -5 -3 -10 -1 -10 4 0 6 5 11 10 11 6 0 10 -2 10
-4z m-1773 -32 c-7 -7 -37 7 -37 17 0 6 9 5 21 -1 11 -7 19 -14 16 -16z m-87
-5 c0 -4 -7 -6 -15 -3 -8 4 -15 10 -15 15 0 4 7 6 15 3 8 -4 15 -10 15 -15z
m120 11 c0 -5 -2 -10 -4 -10 -3 0 -8 5 -11 10 -3 6 -1 10 4 10 6 0 11 -4 11
-10z m55 -1 c4 -6 5 -12 2 -15 -7 -7 -37 7 -37 17 0 13 27 11 35 -2z m2250 1
c10 -16 -16 -43 -28 -31 -11 11 -2 41 12 41 5 0 13 -5 16 -10z m115 -20 c0
-36 -30 -56 -60 -40 -11 6 -20 16 -20 22 0 20 33 48 57 48 19 0 23 -5 23 -30z
m-4070 -20 c0 -16 -5 -30 -11 -30 -5 0 -7 5 -3 11 4 7 0 9 -14 5 -11 -4 -23
-2 -27 4 -9 15 13 40 36 40 14 0 19 -7 19 -30z m1160 9 c0 -6 -4 -7 -10 -4 -5
3 -10 11 -10 16 0 6 5 7 10 4 6 -3 10 -11 10 -16z m2190 5 c0 -8 -4 -12 -10
-9 -5 3 -10 10 -10 16 0 5 5 9 10 9 6 0 10 -7 10 -16z m-3697 -8 c8 -20 -20
-43 -35 -28 -14 14 -3 42 16 42 7 0 16 -6 19 -14z m584 -13 c7 -9 10 -20 7
-24 -8 -14 -62 -11 -67 4 -3 9 -9 9 -27 -1 -12 -7 -25 -11 -28 -8 -3 3 -3 7
-1 9 2 2 17 13 33 25 31 24 62 22 83 -5z m863 17 c0 -5 -2 -10 -4 -10 -3 0 -8
5 -11 10 -3 6 -1 10 4 10 6 0 11 -4 11 -10z m310 -11 c0 -6 -4 -7 -10 -4 -5 3
-10 11 -10 16 0 6 5 7 10 4 6 -3 10 -11 10 -16z m90 -1 c0 -13 -23 -5 -28 10
-2 7 2 10 12 6 9 -3 16 -11 16 -16z m2200 8 c0 -8 -5 -18 -11 -22 -14 -8 -33
11 -25 25 10 16 36 13 36 -3z m-2945 -6 c-3 -5 -16 -15 -28 -21 -21 -10 -21
-9 2 10 25 23 36 27 26 11z m840 -8 c-3 -3 -11 0 -18 7 -9 10 -8 11 6 5 10 -3
15 -9 12 -12z m95 3 c7 -8 8 -15 2 -15 -5 0 -15 7 -22 15 -7 8 -8 15 -2 15 5
0 15 -7 22 -15z m1230 -82 c0 -18 -45 -16 -60 2 -19 23 -31 18 -24 -10 5 -21
3 -25 -14 -25 -12 0 -23 4 -26 9 -3 5 -17 11 -30 13 -17 4 -23 1 -19 -8 5 -14
-23 -31 -34 -21 -10 10 21 66 39 70 10 3 20 2 22 -2 3 -4 17 -7 33 -6 21 0 28
5 29 20 3 58 3 58 44 14 22 -24 40 -49 40 -56z m1673 83 c6 -16 -2 -28 -14
-20 -12 7 -11 34 0 34 5 0 11 -6 14 -14z m-4523 -4 c0 -13 -12 -22 -22 -16
-10 6 -1 24 13 24 5 0 9 -4 9 -8z m759 1 c-10 -2 -15 -11 -12 -21 2 -9 -3 -33
-12 -52 l-16 -35 7 40 c4 22 7 48 6 58 0 11 6 17 21 16 15 -1 17 -3 6 -6z
m845 -71 c14 -27 14 -31 1 -26 -8 3 -13 10 -10 14 3 4 -9 23 -25 41 -16 19
-30 38 -30 44 0 15 46 -37 64 -73z m1470 70 c3 -5 -4 -16 -14 -25 -11 -9 -22
-12 -25 -7 -4 6 -1 10 4 10 6 0 10 3 10 8 -4 21 14 31 25 14z m-53 -30 c11
-29 -16 -58 -37 -41 -17 14 -18 41 -2 57 16 16 29 11 39 -16z m-886 -22 c-9
-41 -17 -33 -9 9 4 17 9 30 11 27 3 -2 2 -19 -2 -36z m-1490 4 c-18 -16 -23
-24 -12 -20 43 14 -18 -35 -118 -94 -24 -14 -35 -18 -28 -9 7 9 10 18 7 21 -6
7 53 54 121 96 61 38 70 40 30 6z m715 5 c0 -6 -4 -7 -10 -4 -5 3 -10 11 -10
16 0 6 5 7 10 4 6 -3 10 -11 10 -16z m130 11 c0 -5 -2 -10 -4 -10 -3 0 -8 5
-11 10 -3 6 -1 10 4 10 6 0 11 -4 11 -10z m-2230 -10 c0 -5 -4 -10 -10 -10 -5
0 -10 5 -10 10 0 6 5 10 10 10 6 0 10 -4 10 -10z m1781 -7 c13 -16 12 -17 -3
-4 -10 7 -18 15 -18 17 0 8 8 3 21 -13z m1909 8 c0 -6 -4 -13 -10 -16 -5 -3
-10 1 -10 9 0 9 5 16 10 16 6 0 10 -4 10 -9z m-1744 -22 c8 -14 -10 -11 -32 6
-18 13 -18 14 4 8 12 -3 25 -9 28 -14z m259 -5 c16 -25 16 -25 -1 -16 -10 5
-19 17 -20 26 -3 22 1 20 21 -10z m1882 -1 c-3 -2 3 -13 13 -23 11 -11 16 -27
13 -39 -7 -28 -15 -26 -52 8 -27 26 -30 33 -21 56 9 22 13 24 31 15 11 -7 18
-14 16 -17z m133 23 c0 -3 -4 -8 -10 -11 -5 -3 -10 -1 -10 4 0 6 5 11 10 11 6
0 10 -2 10 -4z m-2450 -36 c0 -5 -7 -7 -15 -4 -8 4 -15 8 -15 10 0 2 7 4 15 4
8 0 15 -4 15 -10z m419 -41 c11 -21 16 -39 12 -39 -5 0 -16 19 -50 84 -2 5 1
6 8 2 6 -4 20 -25 30 -47z m1181 41 c0 -5 -4 -10 -10 -10 -5 0 -10 5 -10 10 0
6 5 10 10 10 6 0 10 -4 10 -10z m-937 -14 c15 -12 16 -14 2 -20 -9 -3 -15 0
-15 8 0 8 -6 17 -12 19 -7 3 -8 6 -3 6 6 0 18 -6 28 -13z m1224 -8 c-3 -8 -6
-5 -6 6 -1 11 2 17 5 13 3 -3 4 -12 1 -19z m-2710 -4 c4 -13 -24 -27 -37 -19
-5 3 -7 12 -3 21 6 17 34 15 40 -2z m422 -10 c-7 -9 -48 -36 -90 -60 -71 -41
-159 -104 -146 -104 3 0 32 17 64 38 111 73 150 92 150 76 0 -9 -27 -29 -61
-46 -34 -17 -90 -48 -125 -70 -35 -21 -66 -36 -69 -33 -3 3 17 26 44 52 27 26
49 51 49 55 0 4 7 13 15 20 12 11 12 11 1 -4 -21 -28 -7 -22 86 37 96 60 102
62 82 39z m967 -5 c3 -6 20 -17 38 -25 17 -7 24 -13 14 -14 -25 0 -66 20 -72
36 -6 17 10 19 20 3z m2774 1 c0 -5 -7 -10 -16 -10 -8 0 -12 5 -9 10 3 6 10
10 16 10 5 0 9 -4 9 -10z m-770 -21 c0 -5 -11 -9 -25 -9 -28 0 -34 16 -7 23
20 4 32 -1 32 -14z m80 11 c0 -5 -2 -10 -4 -10 -3 0 -8 5 -11 10 -3 6 -1 10 4
10 6 0 11 -4 11 -10z m-2104 -46 c1 -32 -11 -19 -20 21 -6 24 -5 28 5 17 7 -7
14 -24 15 -38z m-1936 26 c0 -5 -5 -10 -11 -10 -5 0 -7 5 -4 10 3 6 8 10 11
10 2 0 4 -4 4 -10z m3550 -5 c0 -8 -7 -15 -15 -15 -16 0 -20 12 -8 23 11 12
23 8 23 -8z m290 5 c0 -5 -4 -10 -10 -10 -5 0 -10 5 -10 10 0 6 5 10 10 10 6
0 10 -4 10 -10z m860 -13 c0 -29 -7 -37 -26 -30 -14 5 -19 35 -7 46 14 15 33
6 33 -16z m-3030 3 c0 -5 -2 -10 -4 -10 -3 0 -8 5 -11 10 -3 6 -1 10 4 10 6 0
11 -4 11 -10z m-925 -29 c-9 -16 -25 -3 -18 15 4 10 9 12 15 6 6 -6 7 -15 3
-21z m1061 2 c-7 -7 -26 7 -26 19 0 6 6 6 15 -2 9 -7 13 -15 11 -17z m2135 0
c5 -13 3 -28 -6 -40 -13 -17 -14 -16 -24 9 -11 30 -5 61 12 55 5 -1 14 -12 18
-24z m-2035 -10 c-7 -7 -26 7 -26 19 0 6 6 6 15 -2 9 -7 13 -15 11 -17z m1962
10 c10 -19 6 -40 -11 -61 -8 -10 -14 -9 -28 4 -22 20 -24 45 -7 62 17 17 36
15 46 -5z m1482 -3 c0 -5 -4 -10 -10 -10 -5 0 -10 5 -10 10 0 6 5 10 10 10 6
0 10 -4 10 -10z m-284 -26 c8 -32 -15 -59 -44 -50 -42 14 -31 76 13 76 18 0
26 -7 31 -26z m-639 -11 c4 -10 -1 -22 -14 -32 -11 -9 -26 -27 -32 -40 -9 -16
-20 -21 -39 -19 -57 6 -26 91 37 101 14 2 30 5 34 6 4 0 10 -6 14 -16z m-1317
-35 c0 -30 -25 -15 -26 15 -1 22 2 25 12 16 8 -6 14 -20 14 -31z m225 32 c11
-17 -5 -32 -21 -19 -7 6 -11 15 -8 20 7 12 21 11 29 -1z m-3172 -15 c7 -16 -8
-29 -23 -20 -15 9 -12 35 4 35 8 0 16 -7 19 -15z m3587 5 c0 -5 -4 -10 -10
-10 -5 0 -10 5 -10 10 0 6 5 10 10 10 6 0 10 -4 10 -10z m-3450 -8 c0 -13 -12
-22 -22 -16 -10 6 -1 24 13 24 5 0 9 -4 9 -8z m3196 -3 c10 -17 -13 -36 -27
-22 -12 12 -4 33 11 33 5 0 12 -5 16 -11z m1114 -23 c0 -5 -7 -3 -15 4 -8 7
-12 17 -9 22 7 10 24 -9 24 -26z m-3340 20 c0 -3 -4 -8 -10 -11 -5 -3 -10 -1
-10 4 0 6 5 11 10 11 6 0 10 -2 10 -4z m2110 -11 c0 -8 -7 -15 -15 -15 -16 0
-20 12 -8 23 11 12 23 8 23 -8z m-2436 -10 c-6 -15 -103 -65 -125 -65 -6 0 -7
-5 -3 -12 5 -8 2 -9 -9 -5 -10 3 -17 2 -17 -4 0 -6 -5 -7 -12 -3 -7 4 -8 3 -4
-4 5 -9 17 -8 44 4 72 31 112 43 112 34 0 -9 -49 -39 -67 -41 -16 -3 -39 -12
-102 -40 -71 -33 -75 -34 -65 -17 4 7 3 8 -5 4 -6 -4 -9 -11 -6 -16 3 -5 -2
-13 -11 -18 -14 -8 -14 -10 -2 -15 17 -6 41 6 38 19 -1 5 4 10 12 12 9 2 8 0
-2 -8 -13 -10 -13 -11 0 -7 8 2 14 10 12 17 -2 8 3 10 13 7 8 -4 15 -2 15 4 0
5 6 9 13 8 25 -3 38 1 32 11 -3 5 0 7 9 4 8 -3 33 4 56 16 23 12 44 19 47 16
8 -8 -17 -36 -33 -36 -7 0 -20 -7 -28 -16 -9 -8 -16 -11 -16 -5 0 7 -8 7 -25
-1 -13 -6 -22 -15 -19 -19 3 -5 -2 -6 -10 -3 -9 3 -16 1 -16 -6 0 -6 -4 -8
-10 -5 -5 3 -23 -1 -40 -10 -53 -28 -79 -35 -85 -24 -4 5 -3 9 2 8 22 -4 34 2
26 14 -4 6 -8 18 -9 25 -4 27 70 84 179 136 62 30 113 55 114 55 1 1 0 -6 -3
-14z m1686 5 c0 -5 -4 -10 -9 -10 -6 0 -13 5 -16 10 -3 6 1 10 9 10 9 0 16 -4
16 -10z m-2380 -26 c0 -8 -5 -12 -10 -9 -6 4 -8 11 -5 16 9 14 15 11 15 -7z
m2520 7 c0 -6 -4 -13 -10 -16 -5 -3 -10 1 -10 9 0 9 5 16 10 16 6 0 10 -4 10
-9z m652 -16 c3 -14 1 -25 -3 -25 -5 0 -9 11 -9 25 0 14 2 25 4 25 2 0 6 -11
8 -25z m-1687 5 c3 -5 1 -10 -4 -10 -6 0 -11 5 -11 10 0 6 2 10 4 10 3 0 8 -4
11 -10z m1787 -32 c-17 -17 -47 9 -30 29 10 12 13 12 27 -1 11 -12 12 -19 3
-28z m-662 22 c0 -5 -2 -10 -4 -10 -3 0 -8 5 -11 10 -3 6 -1 10 4 10 6 0 11
-4 11 -10z m980 -5 c0 -8 -4 -15 -10 -15 -5 0 -7 7 -4 15 4 8 8 15 10 15 2 0
4 -7 4 -15z m70 5 c0 -5 -5 -10 -11 -10 -5 0 -7 5 -4 10 3 6 8 10 11 10 2 0 4
-4 4 -10z m69 -18 c0 -11 -2 -12 -6 -4 -2 6 -9 10 -14 7 -5 -4 -6 1 -3 9 8 20
24 11 23 -12z m-3342 -14 c-3 -8 -6 -5 -6 6 -1 11 2 17 5 13 3 -3 4 -12 1 -19z
m1158 12 c3 -5 1 -10 -4 -10 -6 0 -11 5 -11 10 0 6 2 10 4 10 3 0 8 -4 11 -10z
m1809 -7 c8 -19 -17 -48 -33 -39 -12 8 -15 39 -4 49 12 12 31 7 37 -10z m-874
-2 c0 -12 -20 -25 -27 -18 -7 7 6 27 18 27 5 0 9 -4 9 -9z m190 -12 c0 -6 -4
-7 -10 -4 -5 3 -10 11 -10 16 0 6 5 7 10 4 6 -3 10 -11 10 -16z m-1680 1 c0
-5 -2 -10 -4 -10 -3 0 -8 5 -11 10 -3 6 -1 10 4 10 6 0 11 -4 11 -10z m1530
-15 c0 -8 -4 -17 -10 -20 -6 -4 -10 5 -10 20 0 15 4 24 10 20 6 -3 10 -12 10
-20z m250 21 c0 -15 -14 -35 -21 -30 -15 9 -10 34 6 34 8 0 15 -2 15 -4z
m-139 -23 c11 3 27 3 35 0 17 -6 19 -60 3 -65 -9 -3 -9 -10 0 -26 7 -13 16
-20 22 -17 15 10 23 -26 8 -40 -19 -18 -76 -29 -84 -16 -8 13 13 53 25 46 12
-8 19 17 9 37 -5 9 -22 19 -38 23 -22 5 -30 13 -33 36 -5 35 0 43 19 28 7 -6
22 -9 34 -6z m1889 -3 c0 -11 -4 -20 -10 -20 -5 0 -10 9 -10 20 0 11 5 20 10
20 6 0 10 -9 10 -20z m824 -6 c3 -8 2 -12 -4 -9 -6 3 -10 10 -10 16 0 14 7 11
14 -7z m-1554 -14 c0 -5 -2 -10 -4 -10 -3 0 -8 5 -11 10 -3 6 -1 10 4 10 6 0
11 -4 11 -10z m-557 -20 c34 -16 42 -25 44 -50 1 -18 -3 -30 -10 -30 -7 -1 -2
-9 11 -20 23 -19 24 -19 70 -1 26 10 53 16 60 13 22 -7 60 19 82 55 13 23 27
33 44 33 27 0 70 -46 62 -67 -6 -14 25 -24 153 -48 28 -5 27 -3 35 -39 6 -23
4 -27 -8 -23 -9 4 -16 2 -16 -3 0 -6 6 -10 13 -10 8 0 14 -7 14 -15 0 -8 -4
-15 -9 -15 -4 0 -7 -4 -6 -9 2 -5 0 -8 -3 -7 -4 0 -16 -10 -28 -24 -13 -16
-20 -20 -21 -10 0 10 -3 11 -11 3 -6 -6 -18 -9 -26 -6 -8 3 -18 0 -23 -7 -6
-9 -13 -9 -31 3 -32 20 -189 28 -189 10 0 -7 -7 -13 -15 -13 -8 0 -15 7 -15
15 0 8 -5 15 -11 15 -5 0 -7 -6 -3 -12 5 -9 2 -9 -9 1 -9 7 -17 11 -17 8 0 -3
-13 -1 -30 4 -17 6 -27 16 -23 22 3 6 1 7 -6 3 -7 -4 -15 2 -20 16 -6 13 -10
19 -10 14 -1 -6 -7 -1 -15 10 -13 16 -12 21 1 36 17 19 10 54 -9 42 -9 -6 -9
-9 0 -12 21 -7 13 -24 -11 -20 -27 3 -69 -25 -66 -43 4 -18 -19 -59 -32 -59
-6 0 -7 6 -3 13 6 8 3 8 -9 -1 -24 -20 -78 -17 -127 7 -24 12 -50 21 -58 21
-8 0 -12 6 -8 15 3 8 0 15 -7 15 -9 0 -9 2 1 9 10 6 10 10 -3 21 -11 9 -12 16
-4 26 6 7 8 17 5 22 -7 11 26 12 40 1 16 -13 85 13 94 35 11 30 47 59 61 50 8
-5 10 -3 4 6 -6 9 -4 12 7 8 8 -4 21 -2 29 3 18 11 13 12 62 -11z m-417 -26
c-5 -13 -10 -14 -18 -6 -6 6 -8 18 -4 28 5 13 10 14 18 6 6 -6 8 -18 4 -28z
m1081 20 c8 -21 -13 -42 -28 -27 -13 13 -5 43 11 43 6 0 13 -7 17 -16z m-3236
-18 c-6 -8 -37 -24 -69 -36 -31 -12 -79 -30 -106 -41 -32 -12 -45 -14 -37 -6
6 8 53 30 106 51 52 21 98 42 101 48 3 5 8 7 11 4 3 -3 1 -12 -6 -20z m4374
14 c3 -5 1 -10 -4 -10 -6 0 -11 5 -11 10 0 6 2 10 4 10 3 0 8 -4 11 -10z
m-2478 -16 c8 -22 -15 -44 -26 -25 -10 16 -4 41 10 41 5 0 12 -7 16 -16z
m1846 -4 c6 -24 -8 -36 -17 -14 -8 22 -7 34 3 34 5 0 11 -9 14 -20z m-3158 0
c3 -5 1 -10 -4 -10 -6 0 -11 5 -11 10 0 6 2 10 4 10 3 0 8 -4 11 -10z m1250
-12 c0 -10 6 -23 13 -30 13 -13 17 -32 4 -24 -15 9 -42 -22 -40 -45 2 -18 -2
-25 -18 -27 -23 -3 -37 18 -28 43 4 8 12 15 20 15 14 0 18 21 14 68 -1 18 3
23 17 20 10 -2 18 -11 18 -20z m-2605 -4 c0 -8 -4 -12 -10 -9 -5 3 -10 10 -10
16 0 5 5 9 10 9 6 0 10 -7 10 -16z m2835 6 c3 -5 1 -10 -4 -10 -6 0 -11 5 -11
10 0 6 2 10 4 10 3 0 8 -4 11 -10z m653 -23 c2 -10 -3 -17 -12 -17 -10 0 -16
9 -16 21 0 24 23 21 28 -4z m276 2 c-3 -5 -10 -7 -15 -3 -5 3 -7 10 -3 15 3 5
10 7 15 3 5 -3 7 -10 3 -15z m-4114 1 c0 -5 -4 -10 -10 -10 -5 0 -10 5 -10 10
0 6 5 10 10 10 6 0 10 -4 10 -10z m1121 -4 c-12 -15 -114 -63 -163 -77 l-30
-8 23 22 c13 12 26 19 29 16 3 -4 34 8 70 27 71 36 88 41 71 20z m2759 -6 c0
-5 -5 -10 -11 -10 -5 0 -7 5 -4 10 3 6 8 10 11 10 2 0 4 -4 4 -10z m-578 -24
c4 -6 8 -14 8 -18 0 -9 -30 -38 -40 -38 -8 0 -19 67 -12 75 6 6 36 -7 44 -19z
m1598 14 c0 -5 -7 -10 -15 -10 -8 0 -15 5 -15 10 0 6 7 10 15 10 8 0 15 -4 15
-10z m-3305 -10 c8 -13 -5 -13 -25 0 -13 8 -13 10 2 10 9 0 20 -4 23 -10z
m1161 -1 c3 -6 1 -16 -4 -21 -13 -13 -45 8 -36 23 7 12 31 11 40 -2z m614 1
c0 -5 -2 -10 -4 -10 -3 0 -8 5 -11 10 -3 6 -1 10 4 10 6 0 11 -4 11 -10z
m-1600 -10 c0 -5 -7 -7 -15 -4 -8 4 -15 8 -15 10 0 2 7 4 15 4 8 0 15 -4 15
-10z m1474 -16 c4 -9 1 -23 -5 -31 -11 -12 -14 -12 -27 1 -17 17 -10 46 12 46
7 0 17 -7 20 -16z m-1773 -7 c-1 -12 -15 -9 -19 4 -3 6 1 10 8 8 6 -3 11 -8
11 -12z m1583 -2 c3 -9 -1 -18 -10 -22 -19 -7 -28 2 -21 22 8 19 23 19 31 0z
m1296 -5 c0 -5 -4 -10 -10 -10 -5 0 -10 5 -10 10 0 6 5 10 10 10 6 0 10 -4 10
-10z m-2933 -36 c-9 -9 -28 6 -21 18 4 6 10 6 17 -1 6 -6 8 -13 4 -17z m1785
1 c0 -5 -5 -11 -11 -13 -6 -2 -11 4 -11 13 0 9 5 15 11 13 6 -2 11 -8 11 -13z
m498 11 c0 -2 -12 -11 -26 -21 -25 -16 -25 -16 -14 4 9 17 40 30 40 17z
m-1940 -16 c0 -5 -2 -10 -4 -10 -3 0 -8 5 -11 10 -3 6 -1 10 4 10 6 0 11 -4
11 -10z m2680 -1 c0 -5 -5 -7 -11 -3 -8 5 -8 1 0 -14 6 -11 11 -29 10 -39 0
-14 -3 -12 -11 7 -13 29 -16 42 -11 53 6 11 23 8 23 -4z m-166 -29 c-6 -6 -10
-3 -10 10 0 13 4 16 10 10 7 -7 7 -13 0 -20z m269 24 c9 -9 -16 -44 -30 -44
-7 0 -13 -4 -13 -9 0 -6 -9 -9 -20 -8 -10 1 -17 3 -15 5 2 3 -2 11 -10 19 -8
8 -15 19 -15 24 0 13 24 11 39 -3 10 -11 14 -10 22 5 10 17 30 22 42 11z
m-806 -36 c32 -31 43 -58 23 -58 -5 0 -10 10 -10 23 0 18 -2 19 -11 7 -9 -13
-10 -12 -5 3 3 9 1 17 -5 17 -5 0 -8 -22 -7 -52 2 -43 0 -53 -14 -56 -19 -4
-51 23 -61 51 -4 11 0 21 13 29 14 9 16 16 9 29 -6 12 -5 20 3 25 7 4 8 3 4
-4 -5 -8 2 -12 21 -12 27 1 27 1 9 15 -11 8 -16 15 -11 15 5 0 24 -14 42 -32z
m843 0 c0 -5 -7 -8 -15 -8 -17 0 -18 2 -9 25 5 13 8 14 15 3 5 -7 9 -16 9 -20z
m-1835 -8 c-5 -8 -11 -8 -17 -2 -6 6 -7 16 -3 22 5 8 11 8 17 2 6 -6 7 -16 3
-22z m113 18 c-3 -7 -11 -13 -18 -13 -7 0 -15 6 -17 13 -3 7 4 12 17 12 13 0
20 -5 18 -12z m1542 -4 c0 -8 4 -13 8 -10 5 3 9 -2 9 -10 0 -10 -10 -14 -33
-12 -18 1 -31 4 -30 8 2 3 6 13 9 23 8 21 37 23 37 1z m404 7 c3 -5 -3 -11
-13 -14 -14 -3 -18 -1 -14 9 6 16 19 18 27 5z m-1954 -45 c0 -3 -4 -8 -10 -11
-5 -3 -10 -1 -10 4 0 6 5 11 10 11 6 0 10 -2 10 -4z m40 -6 c0 -5 -2 -10 -4
-10 -3 0 -8 5 -11 10 -3 6 -1 10 4 10 6 0 11 -4 11 -10z m-1440 -10 c0 -5 -5
-10 -11 -10 -5 0 -7 5 -4 10 3 6 8 10 11 10 2 0 4 -4 4 -10z m145 0 c3 -5 -1
-10 -9 -10 -9 0 -16 5 -16 10 0 6 4 10 9 10 6 0 13 -4 16 -10z m1505 0 c0 -5
-5 -10 -11 -10 -5 0 -7 5 -4 10 3 6 8 10 11 10 2 0 4 -4 4 -10z m410 0 c0 -5
-2 -10 -4 -10 -3 0 -8 5 -11 10 -3 6 -1 10 4 10 6 0 11 -4 11 -10z m70 -10 c0
-11 -6 -20 -14 -20 -18 0 -29 16 -21 30 11 18 35 11 35 -10z m730 10 c0 -5 -4
-10 -10 -10 -5 0 -10 5 -10 10 0 6 5 10 10 10 6 0 10 -4 10 -10z m73 -29 c3
-11 -1 -25 -9 -32 -11 -9 -16 -6 -23 12 -5 15 -5 29 1 36 13 16 24 9 31 -16z
m-4623 -11 c0 -5 -4 -10 -10 -10 -5 0 -10 5 -10 10 0 6 5 10 10 10 6 0 10 -4
10 -10z m3370 -15 c0 -16 -27 -28 -36 -14 -7 12 15 41 27 33 5 -3 9 -11 9 -19z
m-1979 -8 c-5 -14 -18 -23 -37 -25 -16 -2 -32 -10 -37 -17 -4 -8 -14 -12 -22
-9 -8 4 -29 -6 -46 -20 -34 -29 -62 -31 -67 -5 -2 11 10 19 36 27 25 8 43 21
50 37 6 14 17 25 23 25 8 0 6 -7 -4 -18 -21 -23 -21 -32 -1 -32 23 0 65 35 54
46 -5 5 5 10 25 11 31 1 33 0 26 -20z m3337 11 c-6 -18 -28 -21 -28 -4 0 9 7
16 16 16 9 0 14 -5 12 -12z m-3271 -40 c-3 -8 -6 -5 -6 6 -1 11 2 17 5 13 3
-3 4 -12 1 -19z m2833 -3 c0 -16 -6 -25 -15 -25 -9 0 -15 9 -15 25 0 16 6 25
15 25 9 0 15 -9 15 -25z m-3070 0 c-27 -14 -36 -13 -25 4 3 6 16 11 28 11 21
-1 21 -1 -3 -15z m2880 5 c0 -5 -4 -10 -10 -10 -5 0 -10 5 -10 10 0 6 5 10 10
10 6 0 10 -4 10 -10z m130 0 c0 -5 -4 -10 -10 -10 -5 0 -10 5 -10 10 0 6 5 10
10 10 6 0 10 -4 10 -10z m1100 6 c0 -3 -4 -8 -10 -11 -5 -3 -10 -1 -10 4 0 6
5 11 10 11 6 0 10 -2 10 -4z m-2020 -36 c0 -11 -4 -20 -9 -20 -6 0 -9 9 -8 20
1 11 5 20 9 20 4 0 8 -9 8 -20z m410 6 c0 -8 -4 -17 -9 -21 -12 -7 -24 12 -16
25 9 15 25 12 25 -4z m625 -5 c3 -5 1 -12 -5 -16 -5 -3 -10 1 -10 9 0 18 6 21
15 7z m-2631 -17 c5 -14 4 -15 -9 -4 -17 14 -19 20 -6 20 5 0 12 -7 15 -16z
m3346 -4 c0 -5 7 -10 15 -10 9 0 15 -9 15 -25 0 -34 -15 -31 -34 7 -19 37 -19
38 -6 38 6 0 10 -4 10 -10z m-2946 -27 c12 -69 17 -167 9 -220 -7 -54 -8 -49
-14 72 -4 72 -10 140 -14 153 -4 13 -3 22 3 22 6 0 13 -12 16 -27z m1133 19
c17 -10 28 -62 14 -62 -7 0 -11 8 -9 18 2 12 -3 16 -17 14 -31 -5 -36 -15 -21
-42 16 -32 10 -56 -9 -40 -8 6 -12 17 -9 25 3 7 0 16 -5 20 -6 3 -8 12 -4 18
8 13 10 19 12 42 1 16 28 20 48 7z m1723 -7 c0 -17 -2 -18 -24 -9 -23 9 -20
24 4 24 11 0 20 -7 20 -15z m-2887 -170 c1 -94 -3 -128 -16 -155 -17 -35 -17
-35 -12 -5 14 80 17 214 6 263 -6 30 -8 59 -4 65 14 22 25 -49 26 -168z m3202
165 c3 -5 1 -10 -4 -10 -6 0 -11 5 -11 10 0 6 2 10 4 10 3 0 8 -4 11 -10z
m-2117 -17 c-5 -24 -25 -27 -31 -3 -4 15 0 20 15 20 13 0 18 -6 16 -17z
m-2758 -29 c0 -16 -16 -19 -25 -4 -8 13 4 32 16 25 5 -4 9 -13 9 -21z m1624
11 c17 -24 1 -227 -24 -300 -13 -37 -19 -47 -15 -25 21 130 26 195 21 263 -5
78 -2 89 18 62z m1336 11 c0 -3 -4 -8 -10 -11 -5 -3 -10 -1 -10 4 0 6 5 11 10
11 6 0 10 -2 10 -4z m190 -6 c0 -5 -4 -10 -10 -10 -5 0 -10 5 -10 10 0 6 5 10
10 10 6 0 10 -4 10 -10z m1095 0 c11 -17 -5 -32 -21 -19 -8 6 -14 15 -14 20 0
12 27 11 35 -1z m338 -9 c5 -22 0 -31 -20 -31 -13 0 -18 31 -6 43 11 12 21 8
26 -12z m-3006 -93 c-5 -73 -15 -129 -36 -193 -30 -92 -43 -99 -17 -9 18 60
36 189 36 255 0 30 4 49 12 49 8 0 9 -28 5 -102z m-145 -14 c-69 -144 -62
-133 -55 -99 3 17 18 59 33 95 15 36 31 74 35 85 8 20 9 20 12 -1 2 -11 -9
-47 -25 -80z m68 85 c0 -18 -38 -161 -58 -217 -14 -40 -21 -49 -26 -36 -4 10
-3 20 2 23 11 7 23 42 28 80 7 51 38 161 46 161 4 0 8 -5 8 -11z m-97 -49
c-15 -24 -36 -54 -45 -69 -11 -15 -18 -20 -18 -11 0 8 9 26 20 40 11 14 20 29
20 34 0 12 42 57 47 52 3 -2 -8 -23 -24 -46z m3295 28 c-2 -13 -11 -24 -20
-26 -21 -4 -24 18 -6 36 19 19 30 14 26 -10z m-4923 -8 c3 -5 2 -10 -4 -10 -5
0 -13 5 -16 10 -3 6 -2 10 4 10 5 0 13 -4 16 -10z m920 -10 c3 -5 1 -10 -4
-10 -6 0 -11 5 -11 10 0 6 2 10 4 10 3 0 8 -4 11 -10z m85 -10 c0 -5 -2 -10
-4 -10 -3 0 -8 5 -11 10 -3 6 -1 10 4 10 6 0 11 -4 11 -10z m-1218 -32 c-9 -9
-15 -9 -24 0 -10 10 -10 15 2 22 20 12 38 -6 22 -22z m58 7 c0 -8 -6 -15 -14
-15 -8 0 -16 -6 -19 -12 -2 -7 -8 -10 -12 -6 -4 4 3 16 16 27 29 25 29 25 29
6z m1090 -7 c11 -4 8 -8 -10 -16 -31 -12 -34 -10 -25 19 4 12 10 17 14 12 3
-6 13 -12 21 -15z m-61 -21 c-9 -7 -14 -19 -12 -27 3 -9 -1 -7 -8 4 -9 14 -8
20 2 27 21 13 36 10 18 -4z m-759 -13 c0 -8 -4 -12 -10 -9 -5 3 -10 10 -10 16
0 5 5 9 10 9 6 0 10 -7 10 -16z m1130 6 c0 -5 -2 -10 -4 -10 -3 0 -8 5 -11 10
-3 6 -1 10 4 10 6 0 11 -4 11 -10z m-418 -17 c-11 -19 -62 -25 -62 -7 0 7 10
15 23 17 45 9 48 8 39 -10z m80 -45 c-8 -8 -9 -4 -5 13 4 13 8 18 11 10 2 -7
-1 -18 -6 -23z m-135 -4 c-3 -3 -12 -4 -19 -1 -8 3 -5 6 6 6 11 1 17 -2 13 -5z
m77 -9 c5 -13 -17 -45 -32 -45 -3 0 -1 5 6 12 15 15 16 32 2 23 -11 -7 -14 8
-3 18 10 11 20 8 27 -8z m421 -15 c3 -5 1 -10 -4 -10 -6 0 -11 5 -11 10 0 6 2
10 4 10 3 0 8 -4 11 -10z m-184 -114 c-15 -17 -63 -28 -58 -12 2 6 9 11 15 11
5 0 14 3 18 8 4 4 14 7 22 7 11 0 12 -3 3 -14z m9 -56 c0 -5 -2 -10 -4 -10 -3
0 -8 5 -11 10 -3 6 -1 10 4 10 6 0 11 -4 11 -10z m-80 -4 c0 -3 -4 -8 -10 -11
-5 -3 -10 -1 -10 4 0 6 5 11 10 11 6 0 10 -2 10 -4z m226 -18 c-14 -8 -16 -17
-11 -44 5 -27 3 -33 -9 -28 -23 9 -29 41 -12 66 9 12 16 18 16 13 0 -5 5 -4
12 3 6 6 14 9 17 6 3 -3 -2 -10 -13 -16z m-341 -8 c3 -5 1 -10 -4 -10 -6 0
-11 5 -11 10 0 6 2 10 4 10 3 0 8 -4 11 -10z m304 6 c-2 -2 -15 -9 -29 -15
-24 -11 -24 -11 -6 3 16 13 49 24 35 12z m-235 -97 c3 1 6 -2 6 -6 0 -10 -47
-23 -54 -15 -12 11 -5 24 9 18 10 -3 15 1 15 12 0 13 2 14 9 4 4 -8 11 -13 15
-13z m28 -41 c-7 -7 -12 -8 -12 -2 0 14 12 26 19 19 2 -3 -1 -11 -7 -17z
m-217 -8 c3 -5 1 -10 -4 -10 -6 0 -11 5 -11 10 0 6 2 10 4 10 3 0 8 -4 11 -10z
m85 -41 c0 -5 -4 -9 -10 -9 -5 0 -10 7 -10 16 0 8 5 12 10 9 6 -3 10 -10 10
-16z m-74 -1 c5 -7 2 -9 -8 -5 -9 3 -21 0 -27 -6 -7 -7 -11 -7 -11 -1 0 24 33
33 46 12z m1675 -11 c-10 -9 -11 -8 -5 6 3 10 9 15 12 12 3 -3 0 -11 -7 -18z
m-2661 -12 c-7 -8 -17 -15 -23 -15 -6 0 -2 7 9 15 25 19 30 19 14 0z m2010 -6
c0 -4 -7 -6 -15 -3 -8 4 -15 10 -15 15 0 4 7 6 15 3 8 -4 15 -10 15 -15z
m-1885 1 c7 -12 -2 -12 -30 0 -19 8 -19 9 2 9 12 1 25 -3 28 -9z m3885 0 c0
-5 -5 -10 -11 -10 -5 0 -7 5 -4 10 3 6 8 10 11 10 2 0 4 -4 4 -10z m-1528 -7
c-6 -2 -10 -9 -6 -14 3 -5 0 -9 -5 -9 -12 0 -14 13 -4 23 3 4 11 7 17 6 6 0 5
-3 -2 -6z m-662 -11 c0 -5 -7 -9 -15 -9 -8 0 -12 4 -9 9 3 4 9 8 15 8 5 0 9
-4 9 -8z m1871 -19 c-31 -25 -32 -27 -15 -40 10 -7 14 -13 8 -13 -5 0 -2 -4 6
-10 8 -5 17 -5 20 -1 8 13 80 23 80 11 0 -5 -9 -10 -20 -10 -14 0 -18 -5 -13
-17 5 -14 1 -15 -33 -10 -21 3 -54 9 -73 13 -25 5 -32 4 -27 -4 9 -15 -38 -16
-66 -1 -18 10 -16 13 31 34 27 13 67 35 88 49 49 34 57 33 14 -1z m-2533 11
c12 -4 22 -10 22 -13 0 -10 -59 -1 -66 10 -6 10 11 11 44 3z m807 -4 c3 -5 1
-10 -4 -10 -6 0 -11 5 -11 10 0 6 2 10 4 10 3 0 8 -4 11 -10z m-728 -6 c-3 -3
-12 -4 -19 -1 -8 3 -5 6 6 6 11 1 17 -2 13 -5z m138 -4 c4 -6 -5 -10 -20 -10
-15 0 -24 4 -20 10 3 6 12 10 20 10 8 0 17 -4 20 -10z m219 -11 c-3 -5 1 -6 9
-3 7 2 37 -11 66 -31 28 -20 56 -33 61 -30 10 6 14 -7 11 -31 -2 -14 47 -33
72 -28 36 8 42 10 54 17 7 4 30 -1 52 -12 42 -22 57 -38 46 -49 -3 -4 -11 1
-16 10 -5 9 -22 23 -38 31 -25 12 -31 12 -35 1 -3 -7 4 -16 15 -19 20 -7 22
-22 10 -65 -7 -24 -7 -24 -18 -5 -11 19 -12 18 -18 -8 -4 -15 -11 -24 -16 -21
-5 3 -9 0 -9 -5 0 -21 -20 -10 -35 19 -8 16 -13 40 -10 53 6 21 2 24 -39 34
-25 6 -46 7 -46 3 0 -12 26 -30 33 -23 4 3 7 1 7 -5 0 -7 -7 -12 -15 -12 -8 0
-15 -6 -15 -12 0 -7 -8 -1 -18 15 -10 15 -22 24 -25 20 -4 -3 -7 2 -7 11 0 12
5 16 15 12 10 -4 15 1 15 14 0 16 -7 20 -31 20 -26 0 -29 3 -24 20 5 15 1 22
-17 29 -14 5 -28 5 -35 -1 -9 -7 -20 -2 -38 18 -37 40 -33 53 15 46 16 -2 27
-8 24 -13z m2412 -1 c5 -17 15 -22 42 -19 6 1 12 -2 12 -6 0 -10 72 -9 89 1 7
5 11 -1 11 -15 0 -19 -4 -21 -36 -16 -20 4 -46 1 -57 -4 -14 -8 -18 -8 -13 0
7 11 -11 15 -44 12 -12 -2 -12 0 -2 7 11 7 8 14 -12 30 -30 23 -32 29 -11 29
8 0 17 -9 21 -19z m-3301 2 c-27 -12 -43 -12 -25 0 8 5 22 9 30 9 10 0 8 -3
-5 -9z m1789 -11 c-3 -5 -10 -7 -15 -3 -5 3 -7 10 -3 15 3 5 10 7 15 3 5 -3 7
-10 3 -15z m498 9 c-9 -9 -15 -9 -24 0 -9 9 -7 12 12 12 19 0 21 -3 12 -12z
m938 -3 c0 -2 -10 -9 -22 -15 -22 -11 -22 -10 -4 4 21 17 26 19 26 11z m-1304
-20 c25 -13 26 -15 8 -15 -12 0 -27 7 -34 15 -16 19 -10 19 26 0z m-261 -21
c11 -8 16 -14 12 -14 -14 0 -77 29 -77 35 0 9 41 -5 65 -21z m215 16 c0 -5 -5
-10 -11 -10 -5 0 -7 5 -4 10 3 6 8 10 11 10 2 0 4 -4 4 -10z m180 1 c0 -5 -7
-11 -15 -15 -15 -5 -20 5 -8 17 9 10 23 9 23 -2z m-736 -16 c11 -8 15 -15 10
-15 -6 0 -19 7 -30 15 -10 8 -14 14 -9 14 6 0 19 -6 29 -14z m417 -2 c13 -16
12 -17 -3 -4 -17 13 -22 21 -14 21 2 0 10 -8 17 -17z m63 6 c-3 -6 0 -15 7
-20 10 -6 7 -8 -9 -6 -21 1 -29 17 -15 30 11 11 25 8 17 -4z m596 7 c0 -3 -4
-8 -10 -11 -5 -3 -10 -1 -10 4 0 6 5 11 10 11 6 0 10 -2 10 -4z m-110 -37 c0
-6 -7 -8 -15 -5 -9 3 -18 -1 -21 -9 -4 -8 -11 -15 -17 -15 -5 0 -2 9 8 20 20
22 45 27 45 9z m-1170 -9 c0 -5 -8 -10 -17 -10 -15 0 -16 2 -3 10 19 12 20 12
20 0z m505 0 c3 -5 1 -10 -4 -10 -6 0 -11 5 -11 10 0 6 2 10 4 10 3 0 8 -4 11
-10z m1035 6 c0 -3 -4 -8 -10 -11 -5 -3 -10 -1 -10 4 0 6 5 11 10 11 6 0 10
-2 10 -4z m340 -17 c10 -6 3 -8 -21 -6 -21 1 -36 7 -36 15 0 12 26 9 57 -9z
m235 0 c-4 -5 -12 -9 -18 -8 -9 0 -8 2 1 6 6 2 9 10 6 15 -4 7 -2 8 5 4 6 -4
9 -12 6 -17z m195 18 c0 -2 -10 -12 -22 -23 l-23 -19 19 23 c18 21 26 27 26
19z m-2840 -11 c0 -3 -4 -8 -10 -11 -5 -3 -10 -1 -10 4 0 6 5 11 10 11 6 0 10
-2 10 -4z m30 0 c0 -3 -4 -8 -10 -11 -5 -3 -10 -1 -10 4 0 6 5 11 10 11 6 0
10 -2 10 -4z m770 -32 c0 -8 -4 -12 -10 -9 -5 3 -10 13 -10 21 0 8 5 12 10 9
6 -3 10 -13 10 -21z m-1020 6 c0 -5 -4 -10 -10 -10 -5 0 -10 5 -10 10 0 6 5
10 10 10 6 0 10 -4 10 -10z m1293 -20 c16 0 30 -8 37 -19 13 -25 13 -51 0 -51
-5 0 -10 14 -10 30 0 17 -5 30 -11 30 -7 0 -9 -10 -5 -24 3 -14 2 -28 -4 -31
-6 -3 -10 5 -10 19 0 14 -4 28 -10 31 -6 4 -10 -7 -10 -24 0 -24 -4 -31 -20
-31 -14 0 -20 7 -21 25 -4 73 -2 81 19 62 10 -10 30 -17 45 -17z m1171 9 c-3
-5 2 -9 10 -9 9 0 16 -4 16 -10 0 -5 -9 -10 -21 -10 -13 0 -18 -4 -13 -12 4
-7 -1 -6 -11 3 -20 20 -12 61 10 52 8 -3 12 -9 9 -14z m436 17 c0 -3 -4 -8
-10 -11 -5 -3 -10 -1 -10 4 0 6 5 11 10 11 6 0 10 -2 10 -4z m-3325 -16 c3 -5
1 -10 -4 -10 -6 0 -11 5 -11 10 0 6 2 10 4 10 3 0 8 -4 11 -10z m175 6 c0 -3
-4 -8 -10 -11 -5 -3 -10 -1 -10 4 0 6 5 11 10 11 6 0 10 -2 10 -4z m2010 -6
c0 -5 -2 -10 -4 -10 -3 0 -8 5 -11 10 -3 6 -1 10 4 10 6 0 11 -4 11 -10z m435
-12 c-19 -11 -30 -5 -21 11 4 6 14 7 22 4 15 -5 14 -7 -1 -15z m183 8 c35 -3
55 -15 31 -18 -51 -5 -76 -4 -91 3 -9 5 -18 5 -20 0 -2 -4 -20 -6 -40 -3 -27
3 -34 7 -26 16 10 10 64 11 146 2z m582 6 c0 -11 -51 -35 -58 -27 -7 7 29 34
46 35 6 0 12 -4 12 -8z m-2607 -14 c28 -15 137 -21 137 -8 0 6 4 10 9 10 4 0
6 -11 3 -25 -2 -14 -9 -25 -15 -25 -6 0 -23 -15 -39 -32 -16 -18 -26 -25 -23
-16 6 15 3 16 -24 8 -22 -6 -31 -5 -31 3 0 8 -3 8 -12 -1 -8 -8 -17 -8 -30 -1
-14 8 -25 5 -45 -10 -14 -12 -34 -21 -44 -21 -10 0 -21 -5 -25 -11 -4 -8 -9
-8 -17 0 -6 6 -19 11 -28 11 -10 0 -21 9 -24 20 -4 11 -9 19 -13 16 -13 -7
-47 11 -47 25 0 9 -12 14 -30 15 -17 1 -45 2 -62 3 -18 0 -33 5 -33 10 0 16
200 12 216 -4 16 -16 46 -9 109 24 46 25 41 24 68 9z m745 -13 c-3 -3 -9 2
-12 12 -6 14 -5 15 5 6 7 -7 10 -15 7 -18z m1492 15 c0 -5 -13 -10 -29 -10
-16 0 -38 -3 -48 -6 -12 -5 -15 -4 -8 4 6 6 24 12 40 15 17 2 33 5 38 6 4 0 7
-3 7 -9z m37 4 c-3 -3 -12 -4 -19 -1 -8 3 -5 6 6 6 11 1 17 -2 13 -5z m-3740
-10 c-3 -3 -12 -4 -19 -1 -8 3 -5 6 6 6 11 1 17 -2 13 -5z m3793 -9 c-7 -9
-15 -13 -19 -10 -3 3 1 10 9 15 21 14 24 12 10 -5z m45 5 c3 -6 -1 -7 -9 -4
-18 7 -21 14 -7 14 6 0 13 -4 16 -10z m-2798 -23 c-2 -7 -12 -11 -22 -10 -20
1 -55 -26 -55 -44 0 -7 8 -13 17 -13 17 0 63 -45 63 -62 0 -4 -9 -8 -19 -8
-11 0 -22 -4 -25 -9 -6 -10 -65 -6 -119 8 -44 11 -58 22 -38 29 30 10 92 79
86 95 -7 17 10 22 78 24 26 1 37 -2 34 -10z m1023 -2 c0 -17 -2 -18 -24 -9
-23 9 -20 24 4 24 11 0 20 -7 20 -15z m908 -3 c2 -7 -2 -10 -12 -6 -9 3 -16
11 -16 16 0 13 23 5 28 -10z m-2157 -6 c35 5 42 4 32 -6 -6 -7 -23 -14 -36
-15 -14 -2 -33 -7 -43 -13 -14 -7 -24 -5 -37 8 -18 18 -18 18 0 28 11 7 22 7
29 1 7 -5 31 -7 55 -3z m1166 -23 c-3 -10 -5 -4 -5 12 0 17 2 24 5 18 2 -7 2
-21 0 -30z m1773 17 c0 -5 -4 -10 -10 -10 -5 0 -10 5 -10 10 0 6 5 10 10 10 6
0 10 -4 10 -10z m-1465 -32 c4 0 11 6 16 13 10 17 24 -34 15 -57 -10 -26 -49
-13 -57 20 -9 32 -1 56 11 36 4 -6 11 -12 15 -12z m-2095 -42 c0 -3 -4 -8 -10
-11 -5 -3 -10 -1 -10 4 0 6 5 11 10 11 6 0 10 -2 10 -4z m279 -18 c14 -5 28
-5 35 1 7 6 55 8 117 6 57 -3 121 -6 142 -6 53 -1 46 -13 -20 -33 -47 -14 -90
-16 -223 -14 -117 2 -165 6 -165 15 0 6 -3 15 -7 19 -32 31 48 39 121 12z
m1001 -149 c0 -9 -27 -19 -51 -19 -11 0 -17 -5 -14 -10 3 -6 -2 -13 -12 -17
-23 -9 -33 -23 -33 -50 0 -13 -3 -23 -8 -23 -4 0 -12 10 -17 23 -6 12 -17 22
-25 22 -14 0 -30 14 -30 25 1 3 7 14 15 24 10 13 33 21 77 26 77 8 98 8 98 -1z"/>
<path d="M3110 3346 c0 -2 8 -10 18 -17 15 -13 16 -12 3 4 -13 16 -21 21 -21
13z"/>
<path d="M3325 3261 c-3 -5 -1 -12 5 -16 5 -3 10 1 10 9 0 18 -6 21 -15 7z"/>
<path d="M450 2400 c0 -4 9 -10 20 -13 11 -3 20 -2 20 3 0 4 -9 10 -20 13 -11
3 -20 2 -20 -3z"/>
<path d="M1471 2034 c-29 -19 -51 -38 -48 -40 5 -5 117 65 117 72 0 9 -19 0
-69 -32z"/>
<path d="M1284 1734 c-18 -14 -18 -15 4 -4 12 6 22 13 22 15 0 8 -5 6 -26 -11z"/>
<path d="M4040 1501 c0 -6 5 -13 10 -16 6 -3 10 1 10 9 0 9 -4 16 -10 16 -5 0
-10 -4 -10 -9z"/>
<path d="M2129 2823 c-13 -16 -12 -17 4 -4 9 7 17 15 17 17 0 8 -8 3 -21 -13z"/>
<path d="M5575 2249 c-4 -6 -5 -12 -2 -15 2 -3 7 2 10 11 7 17 1 20 -8 4z"/>
<path d="M3282 2119 c2 -13 10 -35 17 -48 12 -22 14 -22 29 -7 19 19 10 40
-27 64 -21 14 -22 14 -19 -9z"/>
<path d="M3271 2066 c-16 -19 -41 -21 -41 -4 0 6 -7 4 -18 -5 -10 -10 -23 -17
-29 -17 -18 0 -23 -53 -7 -70 18 -19 43 -5 62 34 8 16 19 25 27 22 19 -7 34
15 26 37 -6 17 -8 17 -20 3z m-62 -77 c-16 -10 -23 -4 -14 10 3 6 11 8 17 5 6
-4 5 -9 -3 -15z"/>
<path d="M3405 2021 c2 -12 0 -21 -6 -21 -5 0 -9 5 -9 10 0 6 -8 5 -19 -2 -11
-7 -17 -16 -14 -21 3 -5 9 -3 14 4 6 11 9 10 15 -4 3 -9 10 -14 15 -11 5 2 19
0 31 -7 19 -9 21 -9 11 2 -17 17 -16 29 1 29 8 0 17 -8 19 -17 4 -15 5 -14 6
3 0 11 6 25 12 31 8 8 8 13 0 17 -6 4 -11 3 -11 -2 0 -5 -11 -12 -25 -14 -13
-3 -23 -1 -22 5 1 5 -3 11 -10 14 -8 3 -11 -3 -8 -16z"/>
<path d="M3376 1895 c4 -8 8 -15 10 -15 2 0 4 7 4 15 0 8 -4 15 -10 15 -5 0
-7 -7 -4 -15z"/>
<path d="M3002 1820 c0 -14 2 -19 5 -12 2 6 2 18 0 25 -3 6 -5 1 -5 -13z"/>
<path d="M2904 1778 c-5 -7 -3 -8 6 -3 10 6 11 4 5 -11 -4 -10 -9 -30 -10 -44
-1 -14 -10 -45 -20 -68 -15 -37 -16 -45 -4 -53 11 -7 11 -9 -3 -9 -18 0 -22
-11 -18 -39 4 -29 -11 -59 -31 -64 -17 -5 -20 -11 -15 -31 6 -25 -9 -47 -16
-24 -3 7 -4 -13 -2 -45 1 -34 8 -65 17 -75 8 -9 12 -23 10 -29 -3 -7 0 -13 7
-13 6 0 9 4 6 9 -9 14 16 19 62 14 29 -3 42 -1 42 7 0 7 8 10 20 7 11 -3 20
-1 20 4 0 5 9 9 19 9 12 0 21 10 26 28 3 15 13 34 21 43 7 8 17 30 20 47 5 25
3 32 -9 32 -9 0 -15 9 -15 23 0 39 -14 112 -24 124 -5 6 -17 9 -26 6 -9 -3
-14 -3 -10 2 4 4 3 14 -3 22 -16 18 -1 17 17 -2 23 -23 36 -18 20 8 -7 12 -16
34 -20 50 -4 15 -13 27 -21 27 -8 0 -15 6 -15 13 0 14 -31 47 -43 47 -3 0 -9
-5 -13 -12z m46 -68 c13 -11 20 -23 16 -27 -3 -4 -19 5 -34 20 -31 31 -16 37
18 7z m46 -148 c11 -14 11 -19 -6 -34 -35 -29 -88 1 -75 43 6 17 12 20 37 15
17 -3 37 -14 44 -24z m19 -52 c-3 -5 -10 -10 -16 -10 -5 0 -9 5 -9 10 0 6 7
10 16 10 8 0 12 -4 9 -10z m-77 -32 c8 -8 15 -8 26 1 13 11 18 10 31 -3 31
-31 -11 -50 -48 -21 -11 7 -25 11 -33 8 -10 -4 -12 0 -8 11 7 19 16 20 32 4z
m42 -88 c0 -5 -5 -10 -11 -10 -5 0 -7 5 -4 10 3 6 8 10 11 10 2 0 4 -4 4 -10z
m-40 -10 c0 -5 -4 -10 -10 -10 -5 0 -10 5 -10 10 0 6 5 10 10 10 6 0 10 -4 10
-10z m-70 -10 c0 -5 -12 -10 -27 -9 -25 0 -26 1 -8 9 27 12 35 12 35 0z"/>
<path d="M2836 1707 c3 -10 9 -15 12 -12 3 3 0 11 -7 18 -10 9 -11 8 -5 -6z"/>
<path d="M6090 1706 c0 -2 7 -7 16 -10 8 -3 12 -2 9 4 -6 10 -25 14 -25 6z"/>
<path d="M2605 1610 c-3 -5 -1 -10 4 -10 6 0 11 5 11 10 0 6 -2 10 -4 10 -3 0
-8 -4 -11 -10z"/>
<path d="M773 1552 c-12 -8 -43 -73 -43 -92 0 -18 20 -10 31 13 6 12 25 33 44
47 21 16 29 28 22 32 -15 10 -39 10 -54 0z"/>
<path d="M2644 1526 c6 -16 4 -17 -9 -6 -13 10 -15 9 -15 -9 0 -12 5 -19 10
-16 6 3 10 2 10 -4 0 -6 7 -7 17 -4 10 4 14 2 10 -4 -4 -6 0 -16 8 -23 23 -19
18 0 -11 45 -14 22 -23 31 -20 21z"/>
<path d="M2700 1530 c0 -8 5 -22 10 -30 9 -13 10 -13 10 0 0 8 -5 22 -10 30
-9 13 -10 13 -10 0z"/>
<path d="M2488 1503 c7 -3 16 -2 19 1 4 3 -2 6 -13 5 -11 0 -14 -3 -6 -6z"/>
<path d="M806 1442 c-3 -5 -1 -14 3 -20 6 -10 10 -10 20 1 9 12 8 16 -3 20 -9
4 -17 3 -20 -1z"/>
<path d="M744 1428 c0 -7 -3 -13 -9 -13 -5 0 -9 3 -7 8 1 4 -2 7 -8 7 -5 0
-10 -9 -10 -19 0 -11 -9 -26 -21 -34 l-21 -15 21 -7 c12 -3 21 -12 21 -20 0
-26 28 -23 49 6 19 25 20 33 10 46 -11 13 -10 17 4 28 19 13 13 25 -14 25 -9
0 -16 -6 -15 -12z"/>
<path d="M2600 1391 c0 -10 7 -21 15 -25 8 -3 15 -10 15 -15 0 -6 -6 -8 -13
-5 -8 3 -13 -3 -13 -15 0 -11 3 -18 7 -15 4 2 10 -5 14 -16 4 -11 10 -18 14
-16 10 6 1 75 -10 82 -5 3 -9 14 -9 25 0 10 -4 19 -10 19 -5 0 -10 -9 -10 -19z"/>
<path d="M2692 1390 c7 -11 17 -20 22 -20 5 0 1 9 -9 20 -10 11 -20 20 -22 20
-2 0 2 -9 9 -20z"/>
<path d="M2452 1378 c6 -18 28 -21 28 -4 0 9 -7 16 -16 16 -9 0 -14 -5 -12
-12z"/>
<path d="M3915 1310 c3 -5 8 -10 11 -10 2 0 4 5 4 10 0 6 -5 10 -11 10 -5 0
-7 -4 -4 -10z"/>
<path d="M603 1302 c-6 -4 -14 -19 -18 -33 -4 -15 -22 -42 -41 -60 -36 -35
-43 -69 -19 -89 8 -7 15 -8 15 -3 0 5 7 10 15 10 8 0 11 -5 8 -10 -3 -5 0 -7
8 -5 9 3 14 20 14 46 0 47 9 60 30 42 17 -14 17 -14 19 60 1 48 -6 58 -31 42z"/>
<path d="M685 1290 c-3 -5 1 -10 10 -10 9 0 13 5 10 10 -3 6 -8 10 -10 10 -2
0 -7 -4 -10 -10z"/>
<path d="M2568 1267 c7 -8 8 -18 4 -22 -4 -5 -1 -5 6 -1 17 10 15 23 -4 30
-13 5 -14 4 -6 -7z"/>
<path d="M657 1263 c-4 -3 -7 -11 -7 -17 0 -6 5 -5 12 2 6 6 9 14 7 17 -3 3
-9 2 -12 -2z"/>
<path d="M1140 1234 c-16 -8 -19 -14 -9 -14 8 0 24 7 35 15 24 18 7 18 -26 -1z"/>
<path d="M536 1225 c-11 -8 -15 -15 -9 -15 6 0 16 7 23 15 16 19 11 19 -14 0z"/>
<path d="M1055 1230 c-3 -5 -1 -10 4 -10 6 0 11 5 11 10 0 6 -2 10 -4 10 -3 0
-8 -4 -11 -10z"/>
<path d="M1007 1193 c-4 -3 -7 -11 -7 -17 0 -6 5 -5 12 2 6 6 9 14 7 17 -3 3
-9 2 -12 -2z"/>
<path d="M4670 1191 c0 -6 4 -13 10 -16 6 -3 7 1 4 9 -7 18 -14 21 -14 7z"/>
<path d="M590 1179 c0 -5 5 -7 10 -4 6 3 10 8 10 11 0 2 -4 4 -10 4 -5 0 -10
-5 -10 -11z"/>
<path d="M6239 1178 c0 -2 -2 -16 -4 -32 -5 -34 -10 -40 -25 -31 -7 4 -10 18
-7 31 3 19 0 24 -17 24 -11 0 -28 -4 -35 -9 -12 -8 -9 -12 13 -22 25 -12 26
-14 9 -20 -15 -6 -14 -8 7 -9 14 -1 37 -4 53 -6 25 -3 27 -1 27 37 0 21 -4 39
-10 39 -5 0 -10 -1 -11 -2z"/>
<path d="M645 1160 c-3 -5 -1 -10 4 -10 6 0 11 5 11 10 0 6 -2 10 -4 10 -3 0
-8 -4 -11 -10z"/>
<path d="M3180 1152 c0 -5 9 -17 20 -27 22 -20 26 -9 6 18 -14 18 -26 22 -26
9z"/>
<path d="M5140 1151 c0 -6 4 -13 10 -16 6 -3 7 1 4 9 -7 18 -14 21 -14 7z"/>
<path d="M2946 1139 c4 -7 -3 -10 -17 -9 -38 3 -49 1 -49 -11 0 -7 10 -9 24
-7 19 4 23 1 19 -11 -3 -12 -2 -12 7 2 14 22 31 22 23 0 -5 -14 -3 -13 14 3
23 22 19 44 -9 44 -11 0 -16 -4 -12 -11z"/>
<path d="M660 1120 c0 -5 5 -10 11 -10 5 0 7 5 4 10 -3 6 -8 10 -11 10 -2 0
-4 -4 -4 -10z"/>
<path d="M3025 1103 c-16 -3 -34 -9 -40 -15 -7 -6 2 -7 27 -3 21 4 52 2 72 -5
30 -10 38 -9 51 4 8 8 15 18 15 22 0 5 -5 3 -12 -4 -14 -14 -42 -16 -33 -2 6
10 -22 11 -80 3z"/>
<path d="M2840 1076 c0 -2 14 -14 30 -26 17 -12 30 -19 30 -16 0 2 -13 14 -30
26 -16 12 -30 19 -30 16z"/>
<path d="M3233 1065 c-3 -9 -3 -19 1 -22 3 -4 6 1 6 10 0 8 6 18 13 20 9 4 9
6 -1 6 -7 1 -15 -6 -19 -14z"/>
<path d="M3160 1054 c0 -18 26 -47 39 -43 8 3 3 13 -13 28 -14 14 -26 20 -26
15z"/>
<path d="M4182 1051 c-11 -7 -11 -9 2 -14 9 -4 16 -2 16 4 0 6 5 7 12 3 7 -4
8 -3 4 4 -8 14 -16 15 -34 3z"/>
<path d="M3070 1046 c0 -2 15 -9 33 -15 29 -10 30 -9 13 4 -18 14 -46 20 -46
11z"/>
<path d="M940 1015 c0 -8 4 -15 8 -15 5 0 9 7 9 15 0 8 -4 15 -9 15 -4 0 -8
-7 -8 -15z"/>
<path d="M2920 1025 c-1 -5 -2 -13 -1 -17 0 -4 -6 -5 -14 -2 -8 4 -15 2 -15
-2 1 -21 17 -31 48 -29 39 2 61 19 37 29 -10 4 -14 2 -9 -5 4 -7 1 -10 -7 -7
-8 3 -13 11 -11 17 1 7 -2 10 -7 7 -5 -4 -12 0 -14 6 -3 7 -6 9 -7 3z"/>
<path d="M3 995 c0 -14 4 -25 9 -25 5 0 6 5 3 10 -3 6 -1 10 4 10 6 0 11 7 11
15 0 8 -6 15 -14 15 -8 0 -13 -10 -13 -25z"/>
<path d="M530 1010 c-8 -5 -12 -11 -9 -14 3 -3 14 1 25 9 21 16 8 20 -16 5z"/>
<path d="M372 993 c2 -9 9 -18 17 -21 10 -3 12 0 8 12 -4 10 -3 15 3 11 6 -3
10 -1 10 4 0 6 -9 11 -21 11 -14 0 -19 -5 -17 -17z"/>
<path d="M4147 999 c7 -7 15 -10 18 -7 3 3 -2 9 -12 12 -14 6 -15 5 -6 -5z"/>
<path d="M40 981 c0 -11 5 -23 10 -26 20 -12 9 -24 -17 -19 -27 5 -28 4 -30
-40 -2 -49 3 -56 22 -29 14 19 51 11 39 -9 -5 -8 0 -7 11 2 10 8 16 10 12 4
-4 -7 6 -14 29 -17 42 -7 56 -3 71 21 12 21 6 75 -8 66 -5 -3 -7 -10 -4 -15 4
-5 1 -9 -4 -9 -14 0 -14 6 -1 30 9 16 6 17 -32 9 -33 -8 -44 -7 -59 7 -11 9
-19 23 -19 31 0 7 -4 13 -10 13 -5 0 -10 -9 -10 -19z m67 -81 c-1 -11 -5 -20
-9 -20 -10 0 -10 4 -2 24 8 22 13 20 11 -4z"/>
<path d="M3272 986 c7 -8 15 -12 17 -11 5 6 -10 25 -20 25 -5 0 -4 -6 3 -14z"/>
<path d="M4629 973 c-67 -19 -91 -22 -126 -15 -34 8 -43 7 -44 -4 -1 -8 -2
-20 -3 -26 0 -7 -8 -13 -16 -13 -15 0 -16 8 -6 35 5 13 -6 14 -86 8 -51 -3
-94 -7 -95 -7 -1 -1 -7 -11 -14 -22 -7 -13 -7 -19 -1 -15 6 4 14 0 19 -8 8
-14 12 -16 34 -16 5 0 8 -4 5 -9 -3 -5 7 -14 24 -21 30 -13 97 -8 129 9 10 6
21 7 25 4 3 -3 6 -1 6 5 0 16 -17 24 -25 12 -8 -13 -55 -13 -55 1 0 5 5 7 10
4 6 -4 26 3 45 15 19 12 39 19 44 16 5 -4 22 -1 37 4 16 7 31 7 36 2 6 -6 -9
-15 -36 -23 -52 -15 -58 -26 -18 -35 15 -3 34 -8 42 -11 8 -3 27 -7 43 -9 22
-3 27 0 27 17 0 28 23 19 31 -12 3 -13 11 -23 18 -21 6 1 34 -5 62 -14 49 -16
51 -16 79 4 27 20 31 21 64 7 24 -10 37 -11 41 -4 4 6 13 8 20 5 7 -2 17 0 23
6 14 14 42 3 42 -17 0 -9 -10 -16 -27 -17 -16 -1 -35 -2 -43 -4 -8 -1 -19 -2
-25 -3 -5 -1 -3 -6 5 -11 18 -11 163 -4 208 11 19 6 51 8 72 5 22 -3 41 -2 45
4 4 6 -8 10 -27 11 -23 1 -8 7 47 19 44 10 78 19 75 20 -3 1 -61 5 -130 10
-96 6 -137 13 -175 30 -27 13 -52 26 -55 30 -17 24 -89 43 -247 64 -11 2 -58
-8 -104 -21z m127 -98 c7 -23 8 -38 1 -42 -13 -8 -27 17 -27 50 0 38 13 34 26
-8z m59 5 c-5 -8 -11 -8 -17 -2 -6 6 -7 16 -3 22 5 8 11 8 17 2 6 -6 7 -16 3
-22z m305 -50 c0 -5 -5 -10 -11 -10 -5 0 -7 5 -4 10 3 6 8 10 11 10 2 0 4 -4
4 -10z"/>
<path d="M1880 982 c0 -12 19 -27 44 -36 16 -6 17 -4 6 9 -18 21 -50 38 -50
27z"/>
<path d="M3000 979 c0 -5 -9 -9 -20 -9 -11 0 -20 -4 -20 -10 0 -16 40 -12 46
5 4 8 10 12 15 9 5 -3 7 -9 4 -13 -7 -12 48 1 61 14 9 8 0 11 -37 12 -27 0
-49 -4 -49 -8z"/>
<path d="M3360 964 c8 -10 20 -23 25 -27 6 -5 1 -6 -10 -2 -11 4 -31 8 -45 8
-14 1 -28 6 -32 12 -5 6 -8 6 -8 -2 0 -6 13 -21 30 -33 23 -17 41 -20 87 -18
50 3 58 6 58 23 0 22 -32 41 -86 52 -32 6 -33 5 -19 -13z"/>
<path d="M4125 970 c-3 -6 1 -7 10 -4 19 8 48 -15 41 -32 -3 -8 0 -11 10 -7
19 7 18 12 -8 34 -26 21 -44 24 -53 9z"/>
<path d="M267 953 c7 -17 23 -17 23 0 0 7 7 4 15 -7 15 -20 21 -11 7 10 -10
15 -51 13 -45 -3z"/>
<path d="M3130 966 c0 -2 7 -7 16 -10 8 -3 12 -2 9 4 -6 10 -25 14 -25 6z"/>
<path d="M4221 954 c0 -11 3 -14 6 -6 3 7 2 16 -1 19 -3 4 -6 -2 -5 -13z"/>
<path d="M230 956 c0 -2 7 -7 16 -10 8 -3 12 -2 9 4 -6 10 -25 14 -25 6z"/>
<path d="M515 950 c-3 -5 -1 -10 4 -10 6 0 11 5 11 10 0 6 -2 10 -4 10 -3 0
-8 -4 -11 -10z"/>
<path d="M917 953 c-4 -3 -7 -11 -7 -17 0 -6 5 -5 12 2 6 6 9 14 7 17 -3 3 -9
2 -12 -2z"/>
<path d="M1775 951 c-3 -5 -2 -12 3 -15 5 -3 9 1 9 9 0 17 -3 19 -12 6z"/>
<path d="M3820 948 c-70 -33 -164 -37 -297 -13 -36 6 -46 -9 -13 -18 11 -3 19
-11 18 -18 -2 -7 8 -19 22 -26 20 -11 68 -13 238 -9 122 3 212 1 212 -4 0 -14
-35 -30 -65 -30 -14 0 -35 5 -46 10 -15 8 -19 7 -19 -5 0 -16 -16 -21 -22 -5
-2 6 -34 6 -88 1 -47 -5 -99 -7 -117 -4 -45 8 -69 -3 -53 -22 7 -8 20 -15 29
-14 11 0 9 3 -6 9 -32 13 -28 17 12 12 40 -5 42 -9 18 -29 -16 -12 -6 -14 81
-9 55 3 102 9 105 14 3 4 22 9 41 10 l35 2 -28 -24 c-16 -14 -26 -30 -22 -35
3 -6 0 -12 -7 -12 -52 -5 -88 -11 -116 -20 -34 -11 -36 -19 -8 -23 9 -1 17 -6
17 -10 0 -11 -70 -56 -111 -73 l-35 -14 25 22 c18 16 20 20 7 16 -10 -4 -30
-7 -43 -7 -14 0 -22 -4 -19 -10 3 -5 1 -10 -4 -10 -6 0 -11 5 -11 10 0 6 -10
11 -22 11 -19 1 -17 3 7 9 l30 8 -35 0 c-19 0 -44 -3 -55 -8 -19 -8 -19 -9 2
-9 28 -1 103 -33 103 -43 0 -11 27 -10 72 4 25 7 37 16 34 25 -3 7 -2 13 3 13
4 0 19 9 32 21 28 24 113 69 131 69 7 0 -15 -17 -50 -37 -80 -48 -80 -60 1
-18 34 17 68 30 76 27 8 -3 20 3 28 14 7 10 13 15 13 11 0 -4 9 2 20 13 24 24
26 34 4 26 -19 -7 20 52 48 72 10 7 18 20 18 28 0 8 7 14 15 14 8 0 15 7 15
15 0 7 6 18 13 22 6 4 22 19 34 33 l22 25 -132 2 c-84 2 -141 -1 -157 -9z m80
-28 c0 -5 -5 -10 -11 -10 -5 0 -7 5 -4 10 3 6 8 10 11 10 2 0 4 -4 4 -10z"/>
<path d="M3048 943 c7 -3 16 -2 19 1 4 3 -2 6 -13 5 -11 0 -14 -3 -6 -6z"/>
<path d="M1630 930 c0 -5 5 -10 11 -10 5 0 7 5 4 10 -3 6 -8 10 -11 10 -2 0
-4 -4 -4 -10z"/>
<path d="M3062 933 c-12 -3 -20 -9 -16 -14 3 -5 10 -7 15 -4 5 4 9 1 9 -5 0
-6 5 -8 12 -4 6 4 8 3 4 -4 -3 -6 2 -17 12 -24 21 -15 84 -156 76 -169 -3 -5
0 -8 7 -7 7 2 14 -1 14 -7 5 -53 18 -105 27 -105 5 0 23 -10 40 -21 22 -16 32
-19 41 -10 8 8 7 11 -6 11 -9 0 -17 6 -17 14 0 9 7 12 20 9 11 -3 20 -14 20
-24 0 -10 5 -21 10 -24 6 -3 10 0 10 8 0 18 47 40 55 26 11 -17 22 0 17 26 -5
28 -20 31 -60 12 -24 -12 -45 -14 -102 -8 -12 1 -13 3 -1 10 7 5 22 6 32 4 12
-3 26 3 39 18 21 26 26 49 10 49 -5 0 -10 7 -10 15 0 8 -4 15 -8 15 -4 0 -16
14 -26 32 -29 48 -48 68 -60 61 -6 -4 -5 0 2 9 11 14 8 24 -20 64 -31 44 -37
48 -78 49 -25 1 -55 0 -68 -2z m73 -23 c3 -5 -1 -10 -9 -10 -9 0 -16 5 -16 10
0 6 4 10 9 10 6 0 13 -4 16 -10z m50 -90 c1 -28 -2 -50 -8 -50 -5 0 -7 6 -4
14 3 8 -1 16 -8 18 -13 3 -13 7 0 32 8 15 12 33 8 40 -3 6 -2 8 2 3 5 -4 9
-30 10 -57z"/>
<path d="M1900 921 c0 -6 4 -13 10 -16 6 -3 7 1 4 9 -7 18 -14 21 -14 7z"/>
<path d="M4110 919 c0 -5 5 -7 10 -4 6 3 10 8 10 11 0 2 -4 4 -10 4 -5 0 -10
-5 -10 -11z"/>
<path d="M210 895 c0 -8 7 -15 16 -15 14 0 14 3 4 15 -7 8 -14 15 -16 15 -2 0
-4 -7 -4 -15z"/>
<path d="M1677 903 c-11 -17 31 -59 45 -45 7 7 3 12 -10 16 -12 4 -22 15 -24
24 -3 12 -6 14 -11 5z"/>
<path d="M1745 900 c-3 -5 -2 -10 4 -10 5 0 13 5 16 10 3 6 2 10 -4 10 -5 0
-13 -4 -16 -10z"/>
<path d="M4155 890 c-3 -5 -1 -10 4 -10 6 0 11 5 11 10 0 6 -2 10 -4 10 -3 0
-8 -4 -11 -10z"/>
<path d="M940 855 c0 -8 2 -15 4 -15 2 0 6 7 10 15 3 8 1 15 -4 15 -6 0 -10
-7 -10 -15z"/>
<path d="M2977 849 c7 -7 15 -10 18 -7 3 3 -2 9 -12 12 -14 6 -15 5 -6 -5z"/>
<path d="M200 841 c0 -5 5 -13 10 -16 6 -3 10 -2 10 4 0 5 -4 13 -10 16 -5 3
-10 2 -10 -4z"/>
<path d="M3277 839 c7 -7 15 -10 18 -7 3 3 -2 9 -12 12 -14 6 -15 5 -6 -5z"/>
<path d="M3376 813 c20 -30 31 -37 52 -35 66 7 98 7 109 -1 6 -4 14 -3 18 3 3
5 1 10 -5 10 -6 0 -9 4 -6 8 6 10 -62 8 -86 -2 -19 -9 -38 -1 -38 15 0 6 15 9
35 6 19 -3 35 -1 35 4 0 6 9 5 20 -1 14 -8 20 -8 20 0 0 6 5 8 10 5 6 -3 10
-2 10 4 0 6 -36 9 -88 9 -49 -1 -94 2 -101 6 -6 4 0 -10 15 -31z"/>
<path d="M4210 834 c-11 -12 -10 -18 3 -31 15 -15 15 -14 10 8 -6 21 -5 22 9
11 14 -11 16 -10 11 7 -6 25 -16 26 -33 5z"/>
<path d="M5 830 c-3 -5 1 -10 9 -10 8 0 18 5 21 10 3 6 -1 10 -9 10 -8 0 -18
-4 -21 -10z"/>
<path d="M167 833 c-10 -9 -9 -23 2 -23 5 0 11 7 15 15 5 15 -5 20 -17 8z"/>
<path d="M1590 812 c15 -12 33 -17 49 -14 23 5 24 6 6 12 -11 4 -23 3 -26 -2
-3 -5 -12 -2 -19 7 -7 8 -17 15 -22 15 -6 0 0 -8 12 -18z"/>
<path d="M4092 801 c-22 -16 -43 -36 -48 -43 -4 -7 4 -4 17 8 42 36 80 56 95
50 9 -3 12 -1 9 4 -10 17 -30 11 -73 -19z"/>
<path d="M4497 823 c-4 -3 -28 -7 -54 -9 -27 -1 -73 -4 -104 -6 l-56 -3 41
-38 c48 -43 75 -55 87 -36 5 8 9 10 9 6 0 -13 -21 -49 -41 -70 -14 -15 -16
-24 -8 -38 13 -26 31 -24 59 6 l24 25 26 -25 c31 -30 66 -33 75 -6 4 14 16 19
48 21 78 4 87 5 87 12 0 4 -4 9 -10 13 -5 3 -7 12 -4 20 5 12 0 14 -26 8 -31
-6 -32 -5 -21 16 12 22 35 28 46 12 3 -5 17 2 31 16 15 15 31 22 40 19 21 -8
34 1 27 19 -4 11 -22 15 -67 15 -33 0 -86 7 -116 15 -61 16 -83 18 -93 8z
m-70 -55 c-3 -8 -6 -5 -6 6 -1 11 2 17 5 13 3 -3 4 -12 1 -19z m104 -3 c1 -17
-18 -17 -25 0 -4 11 -1 15 10 13 8 -2 15 -7 15 -13z m83 0 c-4 -8 -8 -15 -10
-15 -2 0 -4 7 -4 15 0 8 4 15 10 15 5 0 7 -7 4 -15z m-24 -25 c0 -5 -7 -10
-16 -10 -8 0 -12 5 -9 10 3 6 10 10 16 10 5 0 9 -4 9 -10z m-110 -26 c0 -8 -4
-12 -10 -9 -5 3 -10 10 -10 16 0 5 5 9 10 9 6 0 10 -7 10 -16z m127 -4 c-3
-11 -1 -20 5 -20 5 0 8 -5 6 -12 -6 -18 -41 -18 -54 0 -14 20 -8 36 11 28 7
-2 16 2 19 10 8 21 19 17 13 -6z m-177 -51 c0 -5 -4 -9 -10 -9 -5 0 -10 7 -10
16 0 8 5 12 10 9 6 -3 10 -10 10 -16z"/>
<path d="M6223 823 c-7 -3 -13 -11 -13 -18 0 -15 19 -24 38 -18 6 3 12 11 12
18 0 15 -19 24 -37 18z"/>
<path d="M4185 783 c7 -30 13 -39 19 -32 8 8 -6 59 -16 59 -6 0 -7 -11 -3 -27z"/>
<path d="M917 775 c-4 -8 -3 -16 1 -19 13 -8 35 11 28 23 -10 15 -23 14 -29
-4z"/>
<path d="M1625 780 c-3 -5 -13 -6 -22 -3 -15 6 -16 5 -3 -9 17 -17 50 -12 50
8 0 16 -16 19 -25 4z"/>
<path d="M1665 780 c-3 -5 -1 -10 4 -10 6 0 11 5 11 10 0 6 -2 10 -4 10 -3 0
-8 -4 -11 -10z"/>
<path d="M3300 775 c7 -8 19 -15 26 -15 8 0 14 7 14 15 0 10 -10 15 -26 15
-22 0 -25 -2 -14 -15z"/>
<path d="M4806 780 c-17 -6 -16 -8 12 -18 32 -11 43 -3 20 16 -7 5 -22 6 -32
2z"/>
<path d="M5506 775 c-4 -10 -16 -16 -33 -14 -71 5 -214 -2 -208 -10 3 -6 -3
-15 -14 -20 -28 -16 -39 -14 -37 7 1 14 -8 17 -54 18 -30 0 -83 4 -116 7 -49
5 -64 4 -74 -8 -9 -11 -23 -14 -48 -9 l-35 7 24 -34 c13 -19 23 -36 22 -39 -1
-3 1 -7 3 -9 2 -2 4 2 4 9 0 7 3 10 6 7 11 -11 -16 -36 -32 -30 -9 3 -12 0 -9
-9 3 -8 11 -15 18 -16 7 0 21 -3 32 -5 11 -2 28 0 38 5 12 6 17 5 17 -5 0 -8
10 -17 22 -20 25 -7 51 10 44 28 -2 7 9 26 25 43 21 21 26 32 17 36 -7 3 2 3
20 0 20 -3 32 -1 32 5 0 6 5 11 11 11 7 0 9 -9 6 -21 -3 -12 0 -22 8 -26 8 -2
17 -13 20 -23 6 -19 45 -35 45 -19 0 6 10 5 23 -1 l22 -11 -22 18 -23 18 20
33 c13 21 28 32 42 32 25 0 54 -35 38 -45 -6 -3 -10 1 -10 9 0 17 -45 23 -54
7 -9 -14 52 -61 79 -61 35 0 55 10 55 29 0 9 9 22 20 29 19 11 21 10 26 -17 4
-21 13 -30 30 -34 14 -2 27 0 30 4 7 12 44 11 44 0 0 -5 15 5 33 22 18 18 31
35 30 39 -2 3 2 8 9 10 7 3 -5 5 -27 6 -21 1 -43 -4 -48 -11 -7 -9 -10 -9 -14
1 -2 6 -9 9 -15 6 -6 -4 -5 3 2 16 8 15 17 19 28 15 9 -4 23 -10 31 -13 9 -3
12 -1 7 6 -4 7 -1 15 8 18 32 12 14 21 -48 23 -50 1 -65 -2 -70 -14z m-429
-112 c-12 -12 -19 -13 -38 -2 l-24 12 33 14 c17 7 33 19 33 26 1 6 4 1 6 -12
3 -13 -2 -30 -10 -38z m-97 26 c0 -5 -4 -9 -10 -9 -5 0 -10 7 -10 16 0 8 5 12
10 9 6 -3 10 -10 10 -16z m260 -19 c0 -5 -4 -10 -10 -10 -5 0 -10 5 -10 10 0
6 5 10 10 10 6 0 10 -4 10 -10z"/>
<path d="M3007 766 c-4 -10 -1 -13 8 -9 8 3 12 9 9 14 -7 12 -11 11 -17 -5z"/>
<path d="M3971 754 c0 -11 3 -14 6 -6 3 7 2 16 -1 19 -3 4 -6 -2 -5 -13z"/>
<path d="M195 750 c3 -5 8 -10 11 -10 2 0 4 5 4 10 0 6 -5 10 -11 10 -5 0 -7
-4 -4 -10z"/>
<path d="M2421 751 c-10 -7 -7 -9 12 -8 14 1 23 5 20 10 -6 9 -15 9 -32 -2z"/>
<path d="M2790 756 c0 -2 7 -7 16 -10 8 -3 12 -2 9 4 -6 10 -25 14 -25 6z"/>
<path d="M3083 753 c-7 -2 -13 -8 -13 -13 0 -10 38 -1 46 11 6 10 -13 11 -33
2z"/>
<path d="M3428 748 c-26 -9 -40 -38 -18 -38 6 0 10 7 10 16 0 8 5 12 10 9 14
-9 120 5 120 16 0 12 -88 10 -122 -3z"/>
<path d="M3560 750 c0 -5 5 -10 10 -10 6 0 10 5 10 10 0 6 -4 10 -10 10 -5 0
-10 -4 -10 -10z"/>
<path d="M225 730 c6 -19 4 -22 -9 -17 -9 4 -16 2 -16 -3 0 -13 16 -21 33 -14
16 6 12 40 -5 50 -6 4 -7 -2 -3 -16z"/>
<path d="M3009 733 c-12 -14 -12 -16 0 -8 9 5 19 2 28 -10 13 -19 18 -9 7 19
-8 21 -18 20 -35 -1z"/>
<path d="M3325 740 c-3 -6 1 -7 9 -4 18 7 21 14 7 14 -6 0 -13 -4 -16 -10z"/>
<path d="M4718 743 c6 -2 18 -2 25 0 6 3 1 5 -13 5 -14 0 -19 -2 -12 -5z"/>
<path d="M4270 731 c0 -6 9 -9 20 -8 11 1 20 5 20 9 0 4 -9 8 -20 8 -11 0 -20
-4 -20 -9z"/>
<path d="M6125 726 c-15 -11 -14 -13 4 -30 12 -11 21 -25 21 -32 0 -18 53 -31
58 -16 2 7 15 12 28 12 14 0 24 6 24 14 0 17 -27 28 -51 21 -12 -4 -27 3 -43
18 -20 20 -28 23 -41 13z"/>
<path d="M272 716 c13 -13 22 -15 35 -7 16 9 16 10 1 11 -9 0 -25 3 -35 7 -17
7 -17 6 -1 -11z"/>
<path d="M2360 716 c0 -2 7 -9 15 -16 9 -7 15 -8 15 -2 0 5 -7 12 -15 16 -8 3
-15 4 -15 2z"/>
<path d="M2834 708 c-4 -6 -3 -8 3 -5 6 4 14 -1 18 -10 3 -10 1 -19 -4 -21 -6
-2 -11 -8 -11 -14 0 -5 9 -6 20 -3 18 6 19 4 10 -20 -5 -14 -10 -28 -10 -30 0
-2 23 -1 51 1 29 3 48 1 45 -4 -3 -5 10 -2 29 6 19 9 31 20 28 25 -3 5 -8 5
-12 1 -5 -8 -30 -10 -67 -5 -6 0 -9 14 -6 31 4 29 3 31 -23 24 -19 -5 -26 -3
-21 4 4 6 -2 16 -13 21 -25 14 -28 14 -37 -1z m66 -78 c-12 -8 -12 -10 -1 -10
8 0 12 -3 8 -6 -9 -9 -28 6 -22 17 4 5 12 9 18 9 7 0 6 -4 -3 -10z"/>
<path d="M1940 700 c-13 -8 -12 -10 3 -10 9 0 17 5 17 10 0 12 -1 12 -20 0z"/>
<path d="M4330 702 c0 -4 9 -13 20 -19 16 -11 18 -10 14 1 -6 15 -34 30 -34
18z"/>
<path d="M5803 692 c-7 -8 -11 -17 -8 -22 3 -4 -4 -10 -16 -13 -13 -4 -24 1
-32 14 -12 20 -47 27 -47 9 0 -5 5 -10 11 -10 7 0 17 -7 24 -16 10 -14 17 -15
48 -5 25 8 34 17 30 27 -3 9 1 14 13 12 35 -3 55 2 49 12 -8 13 -55 8 -72 -8z"/>
<path d="M5975 694 c-16 -8 -30 -16 -32 -17 -1 -1 15 -3 36 -3 33 -1 38 1 34
17 -3 11 -6 19 -7 19 0 0 -14 -7 -31 -16z"/>
<path d="M3350 691 c0 -6 4 -13 10 -16 6 -3 7 1 4 9 -7 18 -14 21 -14 7z"/>
<path d="M6070 681 c-8 -10 -24 -23 -35 -29 -19 -11 -18 -11 7 -12 14 0 28 4
30 10 2 6 14 6 33 1 25 -7 27 -10 13 -16 -32 -13 -19 -27 20 -21 20 3 39 5 42
6 3 0 -9 9 -27 20 -17 10 -37 28 -43 39 -13 26 -21 26 -40 2z"/>
<path d="M2828 683 c7 -3 16 -2 19 1 4 3 -2 6 -13 5 -11 0 -14 -3 -6 -6z"/>
<path d="M3394 681 c5 -7 -3 -13 -23 -17 -17 -4 -31 -10 -31 -14 0 -12 24 -6
50 11 18 12 21 17 10 24 -9 5 -11 4 -6 -4z"/>
<path d="M3590 682 c0 -12 19 -26 26 -19 2 2 -2 10 -11 17 -9 8 -15 8 -15 2z"/>
<path d="M3505 669 c-4 -6 -5 -12 -2 -15 2 -3 7 2 10 11 7 17 1 20 -8 4z"/>
<path d="M3935 670 c-3 -6 1 -7 9 -4 18 7 21 14 7 14 -6 0 -13 -4 -16 -10z"/>
<path d="M1370 661 c0 -5 9 -7 20 -4 11 3 20 7 20 9 0 2 -9 4 -20 4 -11 0 -20
-4 -20 -9z"/>
<path d="M3130 650 c-38 -7 -40 -6 40 -37 l35 -13 -25 21 c-14 11 -19 18 -12
14 6 -3 12 -2 12 4 0 15 -12 18 -50 11z"/>
<path d="M3415 650 c-3 -6 1 -13 10 -16 21 -9 26 -2 10 13 -9 8 -16 9 -20 3z"/>
<path d="M4870 655 c0 -15 18 -40 24 -34 3 3 -1 14 -9 25 -8 10 -14 15 -15 9z"/>
<path d="M5688 653 c7 -3 16 -2 19 1 4 3 -2 6 -13 5 -11 0 -14 -3 -6 -6z"/>
<path d="M4656 642 c-3 -4 4 -9 15 -9 23 -2 25 3 4 10 -8 4 -16 3 -19 -1z"/>
<path d="M2335 630 c3 -5 10 -10 16 -10 5 0 9 5 9 10 0 6 -7 10 -16 10 -8 0
-12 -4 -9 -10z"/>
<path d="M4738 628 c-2 -5 -21 -11 -43 -12 -22 -1 -53 -10 -70 -20 -16 -9 -23
-15 -15 -13 8 2 27 0 42 -4 18 -5 29 -3 32 4 3 9 5 8 5 0 1 -18 26 -16 45 2 9
9 17 11 21 5 13 -20 32 -10 28 14 -5 24 -39 42 -45 24z"/>
<path d="M5670 630 c8 -5 22 -9 30 -9 10 0 8 3 -5 9 -27 12 -43 12 -25 0z"/>
<path d="M6245 630 c-3 -5 -1 -10 4 -10 6 0 11 5 11 10 0 6 -2 10 -4 10 -3 0
-8 -4 -11 -10z"/>
<path d="M5106 622 c-10 -2 -28 -13 -39 -23 -18 -16 -19 -19 -4 -19 9 0 17 4
17 10 0 5 10 9 23 8 61 -2 76 2 70 19 -4 11 -8 12 -11 5 -2 -7 -10 -9 -20 -4
-9 5 -26 7 -36 4z"/>
<path d="M5340 615 c14 -8 34 -14 45 -14 11 0 2 6 -20 14 -50 18 -57 18 -25 0z"/>
<path d="M5545 620 c-4 -6 7 -10 27 -10 25 0 29 3 18 10 -19 13 -37 13 -45 0z"/>
<path d="M5748 623 c-10 -2 -18 -9 -18 -14 0 -12 10 -11 40 6 24 14 14 18 -22
8z"/>
<path d="M5880 614 c0 -8 -5 -14 -11 -14 -5 0 -7 5 -4 10 8 14 2 13 -45 -6
-47 -19 -48 -28 -2 -15 20 6 32 6 32 0 0 -5 25 -9 57 -9 l56 0 -23 20 c-27 23
-25 24 18 9 22 -7 29 -15 26 -27 -5 -15 -4 -15 6 1 9 14 15 15 31 6 12 -6 23
-8 27 -5 3 3 0 6 -6 6 -7 0 -12 5 -12 11 0 6 13 8 30 5 22 -3 30 0 30 11 0 13
-3 13 -15 3 -9 -7 -15 -8 -15 -2 0 6 -35 10 -90 10 -69 -1 -90 -4 -90 -14z"/>
<path d="M3710 605 c-11 -13 -10 -14 4 -9 9 3 16 10 16 15 0 13 -6 11 -20 -6z"/>
<path d="M4816 613 c-10 -11 -6 -23 7 -23 15 0 49 -38 43 -48 -2 -4 4 -8 14
-8 18 0 18 2 -3 25 -46 51 -55 59 -61 54z"/>
<path d="M4916 608 c5 -8 2 -9 -10 -5 -10 4 -15 3 -11 -3 3 -6 14 -10 23 -10
15 -1 15 -2 -2 -15 -19 -14 -18 -15 12 -21 17 -4 29 -10 26 -15 -3 -5 -10 -7
-15 -4 -5 4 -9 3 -9 -2 0 -21 61 -34 127 -27 37 3 128 7 201 7 72 0 132 4 132
8 0 5 -11 9 -24 9 -13 0 -26 7 -30 15 -3 8 -15 15 -26 15 -11 0 -20 4 -20 9 0
4 12 7 28 5 24 -4 23 -2 -8 10 -47 19 -51 19 -48 -1 2 -12 -2 -17 -12 -15 -8
2 -51 3 -95 2 -157 -4 -233 5 -175 21 23 6 23 7 -7 8 -21 1 -31 -3 -30 -11 2
-7 -1 -3 -7 10 -5 12 -14 22 -19 22 -4 0 -5 -5 -1 -12z"/>
<path d="M5640 610 c20 -13 33 -13 25 0 -3 6 -14 10 -23 10 -15 0 -15 -2 -2
-10z"/>
<path d="M6235 600 c-3 -6 1 -7 9 -4 18 7 21 14 7 14 -6 0 -13 -4 -16 -10z"/>
<path d="M4515 570 c11 -5 27 -9 35 -9 13 -1 13 0 0 9 -8 5 -24 9 -35 9 l-20
0 20 -9z"/>
<path d="M4478 559 c10 -14 7 -15 -24 -14 -19 0 -38 -3 -40 -7 -3 -5 -16 -6
-29 -4 -14 3 -26 -1 -29 -10 -9 -23 -25 -16 -18 8 3 14 2 19 -7 14 -6 -4 -9
-11 -6 -16 3 -5 -3 -15 -14 -22 -10 -7 -21 -25 -22 -38 -4 -23 -1 -25 36 -25
107 1 229 15 238 27 6 9 7 8 3 -4 -4 -15 1 -17 39 -16 29 2 41 6 35 12 -15 15
-13 39 2 30 7 -5 23 -8 37 -8 13 -1 26 -7 29 -15 3 -10 0 -12 -14 -7 -14 5
-16 4 -8 -4 13 -13 64 -3 64 12 0 5 9 6 20 3 30 -10 60 4 60 26 0 11 -5 17
-10 14 -19 -12 -135 -12 -142 -1 -6 8 -11 6 -18 -4 -8 -13 -10 -12 -10 3 0 9
-7 17 -16 17 -8 0 -13 -4 -10 -9 3 -5 -5 -8 -18 -7 -13 0 -22 5 -19 10 3 5 0
6 -8 4 -8 -3 -13 -12 -11 -19 2 -9 -4 -7 -17 5 -24 22 -29 35 -6 16 9 -7 15
-8 15 -2 0 10 -23 22 -41 22 -6 0 -7 -6 -3 -12 4 -7 -6 -2 -22 12 -15 14 -23
18 -16 9z m-43 -39 c3 -5 -1 -10 -10 -10 -9 0 -13 5 -10 10 3 6 8 10 10 10 2
0 7 -4 10 -10z m-108 -36 c-3 -3 -12 -4 -19 -1 -8 3 -5 6 6 6 11 1 17 -2 13
-5z"/>
<path d="M6197 527 c4 -6 -4 -7 -21 -3 -17 4 -34 1 -49 -9 l-21 -15 27 0 c15
0 47 -5 72 -12 51 -14 60 -9 51 26 -5 20 -12 24 -36 24 -17 -1 -27 -5 -23 -11z"/>
<path d="M4840 504 c0 -10 3 -14 7 -11 3 4 15 0 25 -10 11 -10 18 -12 18 -4 0
6 6 11 13 10 6 -1 21 -1 32 0 19 1 19 1 0 14 -11 7 -37 14 -57 16 -30 1 -38
-2 -38 -15z"/>
<path d="M5428 513 c6 -2 18 -2 25 0 6 3 1 5 -13 5 -14 0 -19 -2 -12 -5z"/>
<path d="M4243 473 c-12 -2 -27 -11 -33 -19 -7 -8 -21 -14 -32 -14 -17 0 -18
-3 -8 -15 7 -8 15 -13 19 -11 3 2 24 7 45 10 44 7 60 16 30 16 -18 1 -18 1 -1
11 17 10 24 30 10 28 -5 -1 -18 -4 -30 -6z"/>
<path d="M576 461 c-3 -5 -16 -7 -28 -3 -14 3 -19 2 -14 -6 10 -16 31 -15 46
3 7 8 10 15 7 15 -3 0 -8 -4 -11 -9z"/>
<path d="M500 440 c-9 -16 -8 -18 5 -14 8 4 15 12 15 20 0 20 -7 17 -20 -6z"/>
<path d="M608 453 c7 -3 16 -2 19 1 4 3 -2 6 -13 5 -11 0 -14 -3 -6 -6z"/>
<path d="M3850 360 c0 -5 7 -10 15 -10 8 0 15 5 15 10 0 6 -7 10 -15 10 -8 0
-15 -4 -15 -10z"/>
<path d="M4790 360 c-11 -7 -2 -10 29 -10 48 0 51 4 11 13 -14 3 -32 2 -40 -3z"/>
<path d="M4046 291 c22 -23 264 -43 264 -22 0 8 -35 13 -200 27 -57 5 -72 4
-64 -5z"/>
<path d="M6220 210 c0 -5 9 -10 20 -10 11 0 20 5 20 10 0 6 -9 10 -20 10 -11
0 -20 -4 -20 -10z"/>
<path d="M2835 171 c-3 -5 -1 -12 5 -16 5 -3 10 1 10 9 0 18 -6 21 -15 7z"/>
<path d="M2930 156 c0 -8 5 -18 10 -21 6 -3 10 -1 10 6 0 7 8 5 21 -7 21 -19
21 -19 18 6 -3 19 -11 26 -31 28 -20 2 -28 -1 -28 -12z"/>
<path d="M3030 138 c0 -21 7 -40 20 -51 11 -9 20 -12 20 -7 0 20 19 9 22 -12
3 -19 4 -20 10 -7 8 21 -21 78 -50 97 -21 14 -22 13 -22 -20z"/>
<path d="M3131 113 c-7 -8 -10 -17 -7 -20 9 -9 29 13 25 25 -2 6 -10 3 -18 -5z"/>
<path d="M4207 113 c-14 -14 -6 -23 21 -23 39 0 73 11 66 21 -6 10 -77 12 -87
2z"/>
<path d="M6228 73 c-27 -7 -22 -23 7 -23 16 0 25 6 25 15 0 15 -2 16 -32 8z"/>
</g>
</svg>
